
<svg version="1.1" id="guodu" xmlns="http://www.w3.org/2000/svg" xmlns:xlink="http://www.w3.org/1999/xlink" x="0px" y="0px" viewBox="0 0 1024 1024" enable-background="new 0 0 1024 1024" xml:space="preserve">
	<g id="ball">
		<path class="svgpath" data-index="path_0" fill="#52B8CB" d="M493.238704 63.97608c11.772115 0 23.545252 0 35.317367 0 0.986467 0.137123 1.969864 0.301875 2.958378 0.411369 21.49557 2.360767 43.151799 3.739161 64.451918 7.262404 54.382585 8.995885 105.136525 28.139897 151.952784 57.379848 54.949496 34.323737 99.263771 79.432097 134.49518 133.594671 22.38687 34.413787 40.936341 70.78209 53.68162 109.891829 10.710946 32.868595 16.081257 66.792219 18.627243 101.202936 0.385786 5.194302 0.929162 10.378371 1.399883 15.566534 0 16.531512 0 33.063023 0 49.593512-0.206708 0.695848-0.547469 1.378393-0.601704 2.084475-0.791016 9.975189-1.318018 19.97596-2.342348 29.925566-4.030803 39.146579-12.773931 77.094866-28.398794 113.38949-24.425296 56.732096-57.499575 107.514689-101.951997 150.672628-41.470507 40.263006-89.312118 70.66441-142.711306 92.459808-23.51967 9.601682-47.341215 18.413372-72.646554 22.062482-18.690688 2.698458-37.464263 4.836145-56.203046 7.196912-8.17724 1.032516-16.383132 2.971681-24.540929 2.803859-18.866696-0.38374-37.757952-1.310855-56.55711-2.943029-18.153452-1.577938-36.319184-3.225461-54.083779-8.042163-41.767266-11.330046-82.310657-25.770943-120.054283-47.134507-61.362556-34.732036-110.898763-82.329077-150.114926-140.688229-43.252083-64.360843-68.863391-135.078465-75.139328-212.574467-0.350994-4.330632-0.8913-8.645914-1.345648-12.971429 0-14.276145 0-28.553313 0-42.831504 0.210801-0.960885 0.517793-1.912559 0.615007-2.886747 1.283226-12.687974 2.112104-25.437345 3.869121-38.059827 6.907317-49.674353 21.714558-96.980775 43.960211-141.891637 34.827203-70.311369 85.222987-126.959553 150.523225-170.416298C331.022159 97.360422 399.442458 72.14411 474.664673 66.095347 480.873072 65.594951 487.048725 64.691371 493.238704 63.97608zM682.69566 453.728852c-0.195451-0.032746-0.38988-0.067538-0.585331-0.102331-0.166799-3.246951-0.12996-6.52153-0.556679-9.735735-0.403183-3.040243-0.950651-5.89936-3.975545-8.03193-50.309826-35.482119-100.543927-71.072709-150.739143-106.717534-1.967818-1.397836-3.413749-1.287319-5.41022-0.347924-10.061147 4.740978-20.180622 9.355065-30.280654 14.011108-44.036959 20.311605-88.066755 40.640606-132.13339 60.887742-2.291183 1.051959-3.361561 2.24411-3.581572 4.89038-0.691755 8.350179-1.777483 16.668635-2.659573 25.003464-2.880607 27.245528-5.737678 54.496172-8.612145 81.743746-2.677992 25.381064-5.317099 50.765197-8.113795 76.133981-0.290619 2.6432 0.524956 4.092201 2.553149 5.582135 48.913013 35.931351 97.792257 71.909773 146.640802 107.924012 1.682315 1.239224 3.00852 1.590218 5.064342 0.74292 31.067576-12.828167 62.23032-25.432229 93.26208-38.3484 26.682709-11.104919 52.779064-23.438828 77.642334-38.271652 2.306532-1.376347 3.252067-2.957355 3.418866-5.631254 0.399089-6.361895 1.169639-12.7023 1.786693-19.051915 2.394537-24.656563 4.748141-49.316196 7.196912-73.966619 1.394766-14.06432 2.819209-28.128641 4.467755-42.165332C679.43643 476.741985 681.144328 465.244116 682.69566 453.728852zM827.552839 346.619392c-0.206708-24.016996-0.552585-48.292889-4.599761-72.323189-2.739391-16.257266-7.30436-31.740912-19.871583-43.532469-5.110391-4.793166-10.102079-9.731642-15.431457-14.268982-27.321252-23.248494-57.629535-42.390459-86.960561-62.86784-9.353019-6.528694-19.463284-11.805884-30.617321-14.710027-2.39249-0.62217-4.975315-1.3743-7.343245-1.074472-15.993253 2.030239-32.050973 3.796466-47.900963 6.66991-22.007223 3.989871-43.920302 8.78406-64.710814 17.267269-7.895831 3.221368-15.132652 8.090259-22.551622 12.409634-1.048889 0.60989-2.039449 2.381234-2.023076 3.602038 0.223081 15.389502 0.663102 30.774911 0.99363 46.160319 0.448208 20.764929 0.911766 41.529859 1.25355 62.295811 0.146333 8.992815-0.164752 17.993816 0.088004 26.982538 0.104377 3.693112 0.819668 7.373944 4.330632 9.908674 50.314942 36.33965 100.579743 72.747861 150.923338 109.046578 1.167592 0.842181 3.302209 1.217734 4.66423 0.788969 45.045939-14.166651 90.041736-28.484751 135.082558-42.659589 2.529613-0.796132 3.223415-1.952468 3.292999-4.430916C826.53465 372.882546 827.069839 359.885534 827.552839 346.619392zM793.413298 705.391569c0.825808-2.060939-0.851391-3.406586-3.367701-4.751211-16.655332-8.895601-33.240055-17.928325-49.846268-26.917046-23.862477-12.916171-47.712675-25.854854-71.625294-38.674834-1.12359-0.601704-3.263323-0.741897-4.186346-0.071631-17.543561 12.749372-36.976146 21.943778-56.913221 30.079062-37.709857 15.387455-75.528184 30.507828-113.351628 45.614897-2.77623 1.109264-4.057409 2.65548-4.623297 5.494131-2.246157 11.277858-4.653997 22.526039-7.043417 33.776268-7.034207 33.128515-14.106276 66.24782-21.054525 99.392708-0.225127 1.079588 0.3776 2.979868 1.222851 3.532453 14.971993 9.773598 30.121018 19.272949 45.065382 29.083385 16.861016 11.06194 33.919531 21.630646 53.118801 28.361955 15.980973 5.604648 31.54546 7.108908 47.727001 0.167822 37.08257-15.909341 74.442456-31.174 111.612007-46.88175 6.198166-2.617617 11.952216-6.266727 18.010189-9.236362 16.318664-7.998161 26.422789-21.024849 32.43676-38.004569C783.220145 780.723278 788.857539 743.718479 793.413298 705.391569zM246.808152 302.517965c-15.264659 9.244548-30.115901 18.277272-45.00603 27.243481-18.885116 11.372002-37.675064 22.906709-53.847395 38.066991-8.879228 8.322549-17.08819 16.585747-19.911492 29.79049-5.581112 26.086122-11.646248 52.066843-12.616342 78.782298-1.121544 30.884404-1.269923 61.805648-1.685385 92.714611-0.023536 1.724271 0.937348 3.88447 2.162246 5.135974 16.807804 17.181311 33.780361 34.205033 50.632167 51.343365 9.301853 9.459442 18.429745 19.088754 27.687596 28.591175 4.966105 5.097088 9.942443 10.193153 15.111163 15.078417 2.27481 2.148943 4.78805 2.288113 7.756661 0.281409 36.597523-24.733311 73.293283-49.316196 109.898992-74.036203 1.218758-0.823761 2.346441-2.608407 2.506077-4.056386 3.124154-28.603455 6.098905-57.226353 9.105379-85.84311 3.502777-33.349549 6.982018-66.704215 10.573823-100.044554 0.243547-2.260483-0.37146-3.609201-1.963725-5.15644-21.641903-21.017686-43.194778-42.1244-64.783469-63.197344C270.51611 325.589426 258.585383 313.988204 246.808152 302.517965zM949.931051 556.297902c0.077771-1.103124 0.162706-1.824555 0.173962-2.550079 0.60989-37.712927-0.61296-75.324546-5.924943-112.736621-4.976338-35.068703-12.907984-69.427232-27.390837-101.808734-9.42772-21.076014-20.72502-41.321104-31.333636-61.860906-2.692319-5.212722-5.677303-10.320043-9.001001-15.149025-13.148461-19.107173-33.878598-24.898063-55.55734-15.644305 0.991584 2.929726 2.035356 5.860475 2.982938 8.819876 5.934153 18.513656 7.965415 37.670971 8.777921 56.94085 0.565888 13.352099 0.431835 26.751271 0.12996 40.120766-0.188288 8.366551-1.334391 16.708544-1.927909 25.072025-0.543376 7.667633 0.567935 14.631232 6.031367 20.896936 4.200672 4.818749 7.478322 10.611685 10.350742 16.376992 5.564739 11.17655 11.492752 22.310122 15.60542 34.043351 11.743462 33.502022 22.675442 67.285452 33.825386 100.995205 0.802272 2.427282 1.919722 3.292999 4.453429 3.38612 6.501064 0.236384 12.989849 0.816598 19.48375 1.235131C930.310178 555.062771 940.01112 555.670615 949.931051 556.297902zM126.642329 380.696512c1.406023-1.288343 2.429329-2.133593 3.346211-3.084245 6.062066-6.287193 11.409864-13.506619 18.284435-18.715247 16.939811-12.837376 34.418904-24.987091 51.992141-36.957727 10.202363-6.948249 20.565385-13.948687 31.676443-19.181875 8.900717-4.191462 15.285125-9.522887 20.166295-18.105357 15.357779-26.996864 31.977295-53.137221 53.268204-76.089979 14.20656-15.315824 27.486004-31.489178 41.258683-47.207162 2.209318-2.520403 2.6432-4.771677 1.390673-8.029884-4.125971-10.724249-7.881504-21.592784-11.743462-32.417317-3.789303-10.622942-3.796466-10.680247-13.741979-5.117554-16.698311 9.339716-33.857109 17.971303-49.919946 28.305673-26.41665 16.998139-49.802266 37.817304-71.38891 60.642149-24.264637 25.65531-44.897559 54.106292-64.205301 83.559091-8.441253 12.878309-16.310477 26.089192-21.431102 40.738843-2.344395 6.705726-2.921539 13.45443-0.508583 20.210297C118.783337 359.588775 122.652458 369.869932 126.642329 380.696512zM355.753423 154.769946c0.865717 0 1.24127 0.038886 1.608637-0.005117 28.983101-3.409656 58.003042-3.184529 86.842881 0.821715 20.770046 2.8847 41.367153 7.108908 61.9704 11.098779 18.365276 3.557012 18.499329 3.75758 32.434713-3.693112 0.438998-0.236384 0.876973-0.479931 1.323135-0.703011 7.930623-3.960195 15.612583-8.567119 23.843034-11.750625 22.401196-8.668427 45.931099-12.80463 69.651336-15.893992 9.775644-1.274016 19.586081-2.291183 30.176276-3.520173-0.688685-2.792603-1.079588-5.461385-2.00261-7.934716-3.225461-8.637728-6.241145-17.391089-10.17678-25.704428-1.442862-3.045359-4.857635-6.290263-8.016581-7.196912-13.795191-3.961218-27.743878-7.489578-41.789779-10.446933-32.588209-6.862291-65.708538-8.058536-98.881055-8.828063-15.652492-0.36225-30.880311 2.506077-46.224788 4.577249-13.621229 1.837858-27.489074 2.963495-40.696888 6.475482-18.430768 4.89959-36.368302 11.67797-54.480822 17.755386-7.637957 2.564405-15.187911 5.393847-22.913872 8.150634C344.274998 123.777071 349.997326 139.226948 355.753423 154.769946zM766.032694 839.60227c6.226818 0.450255 11.94403 1.155313 17.666358 1.204431 6.607488 0.057305 13.30605 0.106424 19.809161-0.868787 8.842389-1.329275 14.646582-7.927553 20.199041-14.152325 26.975375-30.242791 50.927903-62.754253 71.615061-97.600899 26.226315-44.178175 45.477774-90.948385 51.380204-142.474922 0.86367-7.528464 1.174756-15.120372 1.766226-23.011086-17.59268-1.197268-34.521235-2.349511-51.537793-3.508917-5.252631 17.754363-13.031804 34.103726-22.811542 49.442062-20.570501 32.260751-43.881416 62.417585-70.549799 89.901543-2.792603 2.87856-4.054339 5.950526-4.52813 9.821693-1.503237 12.284791-2.587941 24.680099-5.075599 36.776601C787.373745 777.202081 780.334421 809.197796 766.032694 839.60227zM110.140493 579.350944c-5.366218 7.297197-10.037611 14.803147-15.872502 21.259186-5.547343 6.136767-5.720282 12.32163-4.26514 19.857257 6.872524 35.602869 20.316721 68.669986 37.95852 100.134605 25.360598 45.231157 57.023738 85.451184 96.063893 119.718639 9.492188 8.331759 19.126616 16.501836 28.735461 24.701588 1.566682 1.339508 2.954285 2.376117 4.861728-0.186242 8.368598-11.234879 16.930601-22.331611 25.555026-33.377178 1.38965-1.779529 1.107217-2.90312-0.027629-4.555759-3.823072-5.569856-7.498788-11.239995-11.225669-16.873296-22.61302-34.195823-43.827181-69.034283-53.327556-109.652376-2.961448-12.662391-9.911744-22.899546-19.386536-32.190143-24.109094-23.638373-48.901757-46.668902-70.097498-73.137741C124.019595 588.68759 117.864408 583.320349 110.140493 579.350944zM582.805626 921.512814c-1.063215-0.248663-1.77339-0.472767-2.49789-0.575098-14.394848-2.060939-27.809369-7.17133-40.768519-13.486152-27.966958-13.625322-54.169737-30.15274-79.295997-48.459688-1.969864-1.434675-4.692882-2.368954-7.134491-2.536776-31.299867-2.170432-62.779835-1.815345-93.851505-7.188726-17.095353-2.954285-34.534538-4.00829-51.093678-9.819646-5.296633-1.859347-10.81123-3.093455-16.150842-4.845355-2.044566-0.670266-3.182482-0.211824-4.418636 1.429559-8.051373 10.698666-16.192797 21.328771-24.283056 31.995715-2.137687 2.819209-1.74269 3.901867 1.442862 5.725398 9.865695 5.641487 19.868513 11.07729 29.464055 17.149589 14.375405 9.089006 28.482705 18.551518 44.270273 25.195845 34.026978 14.316054 69.368904 24.065092 105.570407 30.895661 24.837688 4.685719 49.681516 9.441023 75.127048 8.782014 14.442944-0.3776 28.728298-1.965771 42.042535-8.17724C572.341297 942.411797 580.299549 934.482197 582.805626 921.512814z" />
	</g>
  		
	
	<g id="cup">
		<path class="svgpath" data-index="path_0" fill="#52B8CB" d="M791.226492 422.469917 791.226492 243.396449c110.560048 0 111.707175-6.238075 111.707175 59.691497C902.933667 369.016495 852.940043 422.469917 791.226492 422.469917L791.226492 422.469917zM232.827743 422.469917c-61.686944 0-111.707175-53.453423-111.707175-119.381971 0-65.929572 1.147126-59.691497 111.707175-59.691497L232.827743 422.469917 232.827743 422.469917zM791.226492 183.704952c0-65.928548-49.993624-119.381971-111.679545-119.381971L344.508311 64.322981c-61.686944 0-111.679545 53.453423-111.679545 119.381971-191.270255 0-167.545924-0.029676-167.545924 119.381971 0 98.877985 75.002205 179.073468 167.545924 179.073468 6.658653 0 13.036921-1.133823 19.472494-2.088568 37.487799 117.113301 125.806287 222.618217 231.806483 238.70459l0 181.222411-83.759659 0c-15.414061 0-27.918863 13.340843-27.918863 29.845749 0 16.503882 12.504802 29.845749 27.918863 29.845749l223.360114 0c15.414061 0 27.918863-13.340843 27.918863-29.845749 0-16.504906-12.504802-29.845749-27.918863-29.845749l-83.759659 0L539.948539 718.77539c106.000196-16.086373 194.318684-121.590266 231.835136-238.70459 6.405897 0.954745 12.784164 2.088568 19.442818 2.088568 92.544743 0 167.545924-80.19446 167.545924-179.073468C958.772416 183.675276 982.496747 183.704952 791.226492 183.704952L791.226492 183.704952z" />

	</g>
	<g id="china">
		<path class="svgpath" data-index="path_0" fill="#52B8CB" d="M883.395682 490.939335c0 0 2.645247-14.166651 5.471618-14.166651 2.826372 0-15.273868 4.52199-15.273868 4.52199l-20.35049-6.218632-17.897625 18.281365c0 0-13.19451 11.871375-16.213263-12.628622l-18.46249-3.764744c0 0-25.823132-22.804379 3.39226-24.115234l11.305487-8.479115 2.080382-11.114129 17.897625-15.454994 14.697747-15.454994 13.002129 2.453888c0 0-12.821003 55.772234 1.503237 39.571251 14.32424-16.21224 25.823132-25.63075 30.898731-25.63075 5.087878 0 44.658106-58.033741 44.658106-58.033741l4.341888 5.087878c0 0 22.804379 1.514493 14.132882-10.740622-8.671497-12.256138-0.564865-6.975878 2.826372-6.975878s27.133987-20.916379 21.481244-30.898731c-5.652743-9.983375 9.226129 5.460362 9.226129 5.460362l8.671497-8.818853c0 0-13.566994-38.10076-12.0525-42.623773 1.503237-4.52199 8.852622-10.559497 8.852622-11.305487 0-0.757247 19.219737 17.524119 19.039635-13.9405-0.203638-31.464619 9.609869-68.208475 4.703115-72.742744-4.906753-4.52199-19.593244 12.821003-19.593244 12.821003l-8.671497 1.130753-4.52199 8.671497-19.978007 9.237385-9.609869-7.721869-6.964622-16.21224-21.673625-5.652743c0 0-11.497868 0.192382-11.497868-0.564865s-8.479115 3.764744-8.479115 3.764744l-9.80225-12.43624c0 0-40.136116-59.164494-44.850487-59.548234-4.703115-0.373507-20.158109 1.503237-26.569122-4.330632-6.398734-5.845125-21.673625 3.764744-23.357987 5.845125-1.695618 2.069125-16.020882 9.609869-20.169365 8.671497-4.13825-0.938372-18.46249 24.307615-1.876744 18.654872 16.585747-5.652743 2.069125 19.028379-1.888 21.673625-3.957125 2.645247-9.80225 26.761504-9.226129 28.830629 0.564865 2.069125 5.460362 8.287757-5.652743 16.393365s-23.935132 8.287757-29.780257 5.652743c-5.845125-2.63399-14.32424 40.136116-12.628622 42.770106s5.652743 6.40999 5.652743 6.40999 5.664-5.652743 9.237385-3.39226c3.572362 2.261507 10.933003-2.453888 13.183254 1.311879 2.261507 3.764744 0.949628-20.35049 24.499997-3.957125s23.923876 21.107737 3.39226 21.288862c-20.531616 0.181125-0.74599 2.441609-21.469987 8.479115l-3.968381 8.287757-3.39226-4.13825c0 0-7.349385 8.852622-9.045003 8.852622s-0.373507 8.852622-0.373507 8.852622-12.628622 11.305487-25.245987 10.740622c-12.628622-0.564865-4.906753 23.357987-38.824237 12.617365l-7.16826 5.845125c0 0-4.703115 19.400862 1.515516 21.85475 6.218632 2.453888 0.564865 11.305487-4.906753 11.305487s-10.740622 23.369244-19.412119 22.99676c-8.671497-0.384763-40.882106 8.479115-40.882106 8.479115l-45.788859 19.219737c0 0-6.40999-0.373507-7.349385-4.149507-0.938372-3.776-30.141484-4.330632-33.160237-4.330632-3.03001 0-15.647375-21.107737-52.957119-11.678994-37.309744 9.417487-52.572356-8.671497-53.318346-8.479115-0.757247 0.192382-15.8285-33.545-15.8285-33.545l-32.606629-21.85475c0 0-45.223994-1.514493-42.781362-14.890128l6.218632-11.305487c0 0-0.564865-9.045003 0-10.740622 0.564865-1.695618 2.63399-7.157004 2.63399-7.157004s-24.499997-20.35049-42.590004-60.294225l-5.415336-3.199878c0 0-8.196683 1.842974-11.159154 0.983397-2.973728-0.848321 1.26583 7.348362-20.632923 12.583596-21.911032 5.222955-5.935176 27.563776-5.935176 27.563776s10.175757 25.438369-41.967834-10.32209c0 0-9.327436 28.965705-18.23634 32.934087-8.908904 3.957125 3.25616 10.740622 3.25616 10.740622l-40.554648-1.130753c0 0 9.18008 8.344039-0.700965 13.566994l0.564865-0.316202 0 12.753465 2.543939 7.202029c0 0-1.695618 16.258289-13.985526 23.74275l0 9.18008-9.327436 3.809769-1.978051 4.52199-9.892301-1.978051c0 0-21.763676 10.458189-21.763676 11.17041 0 0.712221-21.051455-0.994654-21.051455-2.543939 0-1.560542-10.32209 9.18008-10.32209 9.18008l-12.719696-0.848321-2.543939-5.935176c0 0-10.604522 0.700965-12.719696-1.560542-2.125407-2.261507-2.962471 5.935176-15.116279 5.935176l0.564865-0.011256-5.935176 5.234211 0 5.087878-8.196683 9.045003 0.848321 15.8285 7.348362-1.560542 9.463536 9.18008c0 0 5.370311 31.373545-16.258289 25.868157-21.617343-5.506411 23.041786 22.611997 23.041786 22.611997s3.674693 6.218632-4.951779 12.006452c-8.615215 5.8001 20.916379 17.388019 20.916379 17.388019s11.588943 4.805446 22.046109 0.848321 45.076638 6.636141 23.176862 29.814026l-11.588943 11.305487L68.609611 548.166711l1.413186 6.218632-3.674693 3.674693 4.805446 8.479115 4.093225 2.826372 0.147356 12.57234-6.647397 0-4.65809 5.222955-8.061606-8.479115c0 0-4.375657 8.908904 0.700965 11.735275 5.087878 2.826372 0.429789 15.262612-2.125407 18.090007-2.543939 2.826372 39.287795 41.831734 39.287795 41.831734l7.91425-4.239558c0 0 21.763676 15.398712 21.763676 17.953907 0 2.543939 14.561647 17.09433 14.561647 17.09433l8.196683-1.831718c0 0 6.783497-0.282433 1.695618 9.745968s11.305487 9.892301 11.305487 9.892301l23.312962 19.367093 12.43624 0c0 0 19.503193 12.990872 32.786731 5.652743 13.284561-7.349385 16.110933 1.560542 9.327436 10.876722-6.783497 9.327436 15.8285-6.071276 16.258289-9.892301 0.418532-3.809769 14.833847-8.332782 21.911032 1.842974 7.065929 10.1645 9.745968 4.386914 12.289907 3.957125 2.543939-0.418532 9.045003 0.429789 11.871375 5.652743 2.826372 5.234211 21.345144-1.130753 19.931958-5.92392-1.413186-4.816702 13.284561-9.892301 13.284561-9.892301l11.305487 0.271176c0 0 12.289907-15.546068 29.960359-7.484462l15.262612-7.495718 5.935176 4.951779-3.674693 4.104481 8.332782 5.92392c0 0-26.003234 15.692401 15.546068 13.148461 41.549302-2.555196 16.959254 55.828516 11.305487 69.961398-5.652743 14.132882-11.735275 17.524119-11.735275 17.524119l1.277086 13.566994 23.460318-2.125407-1.130753 6.353708c0 0 1.695618 17.660218 11.023054 17.660218s5.517667 13.284561-0.983397 22.464641c0 0 14.415314 2.680039 15.262612 6.919597 0.848321 4.239558 13.849426 13.137205 20.48659 6.501064 6.64842-6.647397 8.479115 2.396583 8.196683 9.609869-0.271176 7.213285 10.887978 0 10.887978 0l-2.543939-18.790972c0 0-4.951779-8.908904 8.05035-7.631818 13.002129 1.26583 15.8285-7.77815 15.8285-7.77815l6.919597 3.809769 7.065929-4.093225 3.108804 0.848321 3.809769-1.560542 4.805446 4.239558 3.527336-4.52199 6.794753 1.695618 7.631818-2.973728 2.543939-8.751315c0 0 10.039657-9.05626 14.980179 1.979074 4.951779 11.023054 26.433022 4.951779 26.433022 4.951779l-4.669346 7.484462 17.806551 20.215414c0 0 6.218632-7.213285 16.687054 0.564865 10.458189 7.77815 12.142551-0.994654 12.142551-0.994654l0-6.636141 16.959254 9.045003 12.866029 0.147356c0 0-8.332782 22.329565 7.213285 24.590048 15.546068 2.261507 7.631818-6.919597 7.631818-6.919597s-13.284561-9.892301 0.848321-16.122189c14.132882-6.218632 50.458205-21.617343 50.458205-21.617343l12.289907-10.310833-2.826372-12.719696 9.892301 7.337105c0 0 50.175773-0.848321 62.883189-32.92283l10.469446-10.220782 9.045003-11.305487-2.63399-3.968381 24.12649-27.699875c0 0 41.255613-96.846722 37.309744-102.126982-3.968381-5.28026 12.809747-17.705244-33.726126-15.817244-46.546106 1.876744 21.469987-22.23849 26.003234-22.23849 4.533246 0-3.957125-20.531616-3.957125-20.531616l-27.133987-20.35049-16.959254-30.345122c0 0-26.003234-11.305487-16.959254-23.550369 9.045003-12.243859 28.072359-46.162366 45.969984-45.981241" />
	</g>
</svg>
