<?xml version="1.0" encoding="utf-8"?>
<!DOCTYPE svg PUBLIC "-//W3C//DTD SVG 1.1//EN" "http://www.w3.org/Graphics/SVG/1.1/DTD/svg11.dtd">
<svg style="width:308px;height:308px;" version="1.1" id="图形" xmlns="http://www.w3.org/2000/svg" xmlns:xlink="http://www.w3.org/1999/xlink" x="0px" y="0px" width="1024px" height="1024px" viewBox="0 0 1024 1024" enable-background="new 0 0 1024 1024" xml:space="preserve">
  <path class="svgpath" data-index="path_0" fill="#ffffff" d="M114.774535 456.410937l794.45093 0c28.636201 0 51.811016 23.191188 51.811016 51.812039 0 28.620851-23.173792 51.812039-51.811016 51.812039L114.774535 560.035016c-28.638247 0-51.812039-23.191188-51.812039-51.812039C62.962495 479.601102 86.135264 456.410937 114.774535 456.410937z" />
<path class="svgpath" data-index="path_1" fill="#ffffff" d="M484.27096 138.708132c21.893636 21.892613 26.514887 52.79032 10.287297 68.998467L171.611008 530.671245c-16.22452 16.225543-71.972195 35.69292-93.863784 13.800307s-16.797571-55.728232-0.538259-71.935356l338.081948-344.098989C431.481663 112.211664 462.379371 116.816542 484.27096 138.708132z" />
<path class="svgpath" data-index="path_2" fill="#ffffff" d="M114.774535 456.410937l794.45093 0c28.636201 0 51.811016 23.191188 51.811016 51.812039 0 28.620851-23.173792 51.812039-51.811016 51.812039L114.774535 560.035016c-28.638247 0-51.812039-23.191188-51.812039-51.812039C62.962495 479.601102 86.135264 456.410937 114.774535 456.410937z" />
<path class="svgpath" data-index="path_3" fill="#ffffff" d="M415.290913 888.376113 77.208964 544.277124c-16.259312-16.208147-21.35333-50.043766 0.538259-71.936379s77.639265-2.425236 93.863784 13.800307l322.94725 322.963623c16.226566 16.20917 11.606339 47.106878-10.287297 68.99949C462.379371 899.995755 431.481663 904.600633 415.290913 888.376113z" />

</svg>
