
<svg version="1.1" id="luoxiaohei" xmlns="http://www.w3.org/2000/svg" xmlns:xlink="http://www.w3.org/1999/xlink" x="0px" y="0px"
	 width="428px" height="312px" viewBox="0 0 428 312" enable-background="new 0 0 428 312" xml:space="preserve">
<path fill="none" stroke="#FFFFFF" stroke-width="2" stroke-miterlimit="10" d="M129.574,220.627c0,0-9.646-8.107-15.119-4.441
	l-2.815-2.591c0,0,12.047-14.325-18.305-51.909v-4.752l0.564-0.248c0,0,22.357-23.488,48.845-26.536c0,0,37.988-4.798,45.488-3.798
	c0,0,21.301,0.25,29.65,11c0,0,5.6,4.75,17.6,7.25c0,0,13.5,0.887,29.5,28.818c0,0,19.162,40.188,20.706,66.935l-3.597,1.059
	c0,0-25.846-1.198-36.977,28.87h-3.75c0,0,2.759-9.355-46.687-11.269c0,0,24.823-9.266,25.486-31.288
	c-0.289-21.477-14.061-25.804-15.915-27.541c-6.234-5.84-19.053-6.274-20.884-6.685c-6.698-1.505-21.289,3.052-21.289,3.052
	l-14.95-1.2h-22.633l1.035,6.624L129.574,220.627z"/>
<g>
	<polygon fill="none" stroke="#FFFFFF" stroke-linecap="round" stroke-linejoin="round" stroke-miterlimit="10" points="
		220.191,180.233 213.386,175.436 215.732,182.567 	"/>
	<path fill="none" stroke="#FFFFFF" stroke-linecap="round" stroke-linejoin="round" stroke-miterlimit="10" d="M251.16,155.078
		c0,0-5.476,0.018-1.682,6.608c0,0,3.504,1.584,3.504,0s-1.201,6.49,1.5,3.158l2.833-3.158L251.16,155.078z"/>
	<path fill="none" stroke="#FFFFFF" stroke-linecap="round" stroke-linejoin="round" stroke-miterlimit="10" d="M243.672,148.164
		c0,0,0.073,4.202-2.309,3.57c0,0,3.172,5.836,0,4.477c0,0-15.382-9.108-10.632-9.358c0,0,1.849-3.021,4.75-2.25
		C235.482,144.602,243.78,146.841,243.672,148.164z"/>
	<path fill="none" stroke="#FFFFFF" stroke-linecap="round" stroke-linejoin="round" stroke-miterlimit="10" d="M207.607,131.175
		c0,0-3.939-0.997,3.619,7.428c0,0-4.009,0.882-1.698,1.665c2.311,0.783,6.788,2.474,6.788,2.474l3.875-3.375L207.607,131.175z"/>
	<path fill="none" stroke="#FFFFFF" stroke-linecap="round" stroke-linejoin="round" stroke-miterlimit="10" d="M180.982,133.979
		c0,0,0-3.149,5.75-7.763c0,0,2.75,1.875,3.75,3.881c0,0,5.375-2.506,6.188,0c0,0,2.053,1.82-4.442,6.038L180.982,133.979z"/>
	<path fill="none" stroke="#FFFFFF" stroke-linecap="round" stroke-linejoin="round" stroke-miterlimit="10" d="M256.982,184.9
		c0,0-4.44,8.022-3.75-2.333c0,0-8.396-2.381-0.073-5.548c0,0-1.427-6.583,3.823,0l2.656,0.669l1.55,2.545l-1.55,0.786
		C259.638,181.02,266.732,190.698,256.982,184.9z"/>
	<path fill="none" stroke="#FFFFFF" stroke-linecap="round" stroke-linejoin="round" stroke-miterlimit="10" d="M241.364,186.378
		v3.191c0,0-11.651,4.563,0,5.278c0,0,0.618,12.257,5.118,0.506c0,0,5.75,6.251,4.5,0
		C250.982,195.354,245.996,187.153,241.364,186.378z"/>
	<polygon fill="none" stroke="#FFFFFF" stroke-linecap="round" stroke-linejoin="round" stroke-miterlimit="10" points="
		249.79,230.78 243.797,230.246 239.98,234.896 238.614,229.011 233.014,226.783 238.161,223.682 238.519,217.655 243.065,221.625 
		248.884,220.128 246.551,225.682 	"/>
	<polygon fill="none" stroke="#FFFFFF" stroke-linecap="round" stroke-linejoin="round" stroke-miterlimit="10" points="
		226.237,244.061 222.079,248.15 223.088,253.895 217.915,251.203 212.761,253.938 213.722,248.184 209.528,244.129 
		215.297,243.267 217.858,238.026 220.46,243.245 	"/>
	
		<ellipse fill="none" stroke="#FFFFFF" stroke-linecap="round" stroke-linejoin="round" stroke-miterlimit="10" cx="108.759" cy="154.068" rx="2.5" ry="2.333"/>
	
		<ellipse fill="none" stroke="#FFFFFF" stroke-linecap="round" stroke-linejoin="round" stroke-miterlimit="10" cx="118.925" cy="182.567" rx="2.5" ry="2.333"/>
	<path fill="none" stroke="#FFFFFF" stroke-linecap="round" stroke-linejoin="round" stroke-miterlimit="10" d="M128.301,133.979
		c0,0-6.294,1.708-7.431,4.041C120.87,138.02,127.87,142.938,128.301,133.979z"/>
	<polygon fill="none" stroke="#FFFFFF" stroke-linecap="round" stroke-linejoin="round" stroke-miterlimit="10" points="
		179.352,185.316 176.655,188.438 177.697,192.43 173.896,190.829 170.42,193.053 170.768,188.941 167.579,186.325 171.597,185.386 
		173.1,181.545 175.234,185.073 	"/>
	<polygon fill="none" stroke="#FFFFFF" stroke-linecap="round" stroke-linejoin="round" stroke-miterlimit="10" points="
		135.732,167.094 130.464,166.923 127.337,171.166 125.872,166.104 120.87,164.44 125.232,161.481 125.268,156.211 129.429,159.446 
		134.453,157.852 132.663,162.809 	"/>
	<path fill="none" stroke="#FFFFFF" stroke-linecap="round" stroke-linejoin="round" stroke-miterlimit="10" d="M157.946,183.186
		l-3.654,2.917c0,0-0.132,2.184,3.654,3.467c0,0,3.668-1.884,3.644-3.467C161.565,184.52,157.946,183.186,157.946,183.186z"/>
	<path fill="none" stroke="#FFFFFF" stroke-linecap="round" stroke-linejoin="round" stroke-miterlimit="10" d="M229.496,169.25
		l2.361,5.125c0,0,2.914,2.303,6.33,1.384c0,0-0.949-4.079-3.114-5.679C232.907,168.48,229.496,169.25,229.496,169.25z"/>
	
		<ellipse fill="none" stroke="#FFFFFF" stroke-linecap="round" stroke-linejoin="round" stroke-miterlimit="10" cx="185.399" cy="175.436" rx="1.333" ry="1.583"/>
	
		<ellipse fill="none" stroke="#FFFFFF" stroke-linecap="round" stroke-linejoin="round" stroke-miterlimit="10" cx="140.96" cy="179.273" rx="1.333" ry="1.583"/>
	<path fill="none" stroke="#FFFFFF" stroke-linecap="round" stroke-linejoin="round" stroke-miterlimit="10" d="M170.065,143.686
		c0,0,3.75-4.166,7.541-1.833c0,0,3.875,2,0,5c0,0-0.742-1.167-4.142-1.667C170.065,144.686,170.065,143.686,170.065,143.686z"/>
	<path fill="none" stroke="#FFFFFF" stroke-linecap="round" stroke-linejoin="round" stroke-miterlimit="10" d="M215.732,151.735
		c0,0-2.262,7.383-4.506,0c0,0-7-0.633,2.253-4.883c0,0-0.079-5.75,2.837,0c0,0,7.584-0.25,3.875,3.75
		C220.191,150.602,222.982,159.868,215.732,151.735z"/>
	<path fill="none" stroke="#FFFFFF" stroke-linecap="round" stroke-linejoin="round" stroke-miterlimit="10" d="M160.503,167.042
		c0,0,2.615,8.869-4.415,2.871c0,0-7.273,3.826-0.987-6.348c0,0-3.841-5.734,2.78-1.809c0,0,7.268-5.086,6.251,1.303
		C164.132,163.06,172.931,170.602,160.503,167.042z"/>
</g>
<path fill="none" stroke="#FFFFFF" stroke-width="2" stroke-miterlimit="10" d="M186.732,151.735"/>
<g>
	<g>
		<path fill="none" stroke="#FFFFFF" stroke-width="2" stroke-miterlimit="10" d="M202.085,167.102
			c-53.146-0.75-85.107,44.942-85.107,44.942"/>
		<path fill="none" stroke="#FFFFFF" stroke-width="2" stroke-miterlimit="10" d="M186.982,136.376c0,0,15.75,3.459,16,30.718
			c-15.75-23.009-64.123-25.491-64.123-25.491"/>
		<path fill="none" stroke="#FFFFFF" stroke-width="2" stroke-miterlimit="10" d="M259.638,175.977c0,0-19.656-16.892-52.031-8.883"
			/>
		<path fill="none" stroke="#FFFFFF" stroke-width="2" stroke-miterlimit="10" d="M243.239,266.73c0,0-14.991-79.128-37.249-97.628
			c54.008,10,76.102,72.312,76.102,72.312s-6.906-48.882-18.133-58.847c0,0-25.061-47.355-90.019-47.91
			c0,0-37.297-7.191-78.378,25.252"/>
	</g>
	<g>
		<path fill="none" stroke="#FFFFFF" stroke-width="2" stroke-miterlimit="10" d="M193.282,191.269l10.95-26.33
			c0,0,1.25-0.586,3.375,1.164l-8.708,21.25L193.282,191.269z"/>
		<path fill="none" stroke="#FFFFFF" stroke-width="2" stroke-miterlimit="10" d="M198.777,178.057
			c-3.48-1.102-9.266-12.14-9.266-12.14"/>
		<path fill="none" stroke="#FFFFFF" stroke-width="2" stroke-miterlimit="10" d="M193.282,157.58c0,0,2.09,19.125,4.589,22.653"/>
		<path fill="none" stroke="#FFFFFF" stroke-width="2" stroke-miterlimit="10" d="M201.646,155.078c0,0-2.802,12.953-1.201,18.774"
			/>
		<path fill="none" stroke="#FFFFFF" stroke-width="2" stroke-miterlimit="10" d="M217.882,171.995c0,0-10.25,5.033-15.797,8.238
			c-6.741,3.896,18.105-15.389,18.105-15.389"/>
		<path fill="none" stroke="#FFFFFF" stroke-width="2" stroke-miterlimit="10" d="M213.386,179.002c0,0-6.082,3.493-11.301,1.231"/>
	</g>
</g>
<g>
	<path fill="none" stroke="#FFFFFF" stroke-miterlimit="10" d="M113.839,216.633c-0.838,0.607-2.011,0.419-2.618-0.419l0,0
		c-0.607-0.839-0.419-2.012,0.419-2.618l2.72-1.97c0.838-0.607,2.011-0.42,2.618,0.419l0,0c0.607,0.838,0.419,2.011-0.419,2.618
		L113.839,216.633z"/>
	<path fill="none" stroke="#FFFFFF" stroke-miterlimit="10" d="M96.399,158.354c0,0,0.667-2.834-2.5-1.667
		c0,0-4.666,1.833-3.5,3.833c0,0,0.538,1,2.936,1.167C93.334,161.686,95.399,161.02,96.399,158.354z"/>
	<path fill="none" stroke="#FFFFFF" stroke-width="2" stroke-miterlimit="10" d="M175.399,133.186c0,0,0.999-2.499-1.667-2.833
		c0,0-4.333-1.334-6.5,2.833c0,0-1.167,3.501,3,3.167C170.232,136.354,174.066,135.354,175.399,133.186z"/>
	<path fill="none" stroke="#FFFFFF" stroke-miterlimit="10" d="M266.441,179.692c0.552,0.876,0.289,2.034-0.587,2.586l0,0
		c-0.876,0.552-2.034,0.29-2.586-0.586l-1.791-2.842c-0.553-0.874-0.29-2.033,0.586-2.585l0,0c0.876-0.552,2.034-0.29,2.586,0.586
		L266.441,179.692z"/>
	<path fill="none" stroke="#FFFFFF" stroke-miterlimit="10" d="M286.637,243.577c0.292,0.993-0.276,2.036-1.27,2.328l0,0
		c-0.993,0.292-2.036-0.276-2.328-1.27l-0.948-3.222c-0.293-0.992,0.275-2.035,1.269-2.328l0,0c0.993-0.292,2.036,0.276,2.328,1.27
		L286.637,243.577z"/>
	<path fill="none" stroke="#FFFFFF" stroke-miterlimit="10" d="M245.114,271.964c0,1.035-0.84,1.875-1.875,1.875l0,0
		c-1.035,0-1.875-0.84-1.875-1.875v-3.358c0-1.035,0.84-1.875,1.875-1.875l0,0c1.035,0,1.875,0.84,1.875,1.875V271.964z"/>
</g>
<g>
	<path fill="none" stroke="#FFFFFF" stroke-width="2" stroke-miterlimit="10" d="M164.732,260.853l-6.786,21.5
		c0,0-0.099-4.625-6.714-4.75c0,0-6.233,0.118-4.644,8c0.282,1.397,1.144,7,9.956,5.373c0,0,4.313-1.373,5.938-6.498l7.125-22.719
		v-0.809l-4.625-0.931L164.732,260.853z"/>
	<path fill="none" stroke="#FFFFFF" stroke-miterlimit="10" d="M220.191,226.52c0,18.317-18.207,35.166-40.666,35.166
		c-22.459,0-40.666-10.333-40.666-35.166c0-18.317,18.207-33.167,40.666-33.167C201.984,193.352,220.191,208.202,220.191,226.52z"/>
	<path fill="none" stroke="#FFFFFF" stroke-width="2" stroke-miterlimit="10" d="M220.191,226.52
		c0,18.317-18.207,35.166-40.666,35.166c-22.459,0-40.666-10.333-40.666-35.166c0-18.317,18.207-33.167,40.666-33.167
		C201.984,193.352,220.191,208.202,220.191,226.52z"/>
	<path fill="none" stroke="#FFFFFF" stroke-miterlimit="10" d="M176.232,225.477c-0.798,15.063-9.206,19.75-19.049,19.75
		s-17.7-9.875-17.555-20.721c0.151-11.224,9.316-20.404,19.159-20.404C168.629,204.102,176.867,213.48,176.232,225.477z"/>
	<path fill="none" stroke="#FFFFFF" stroke-width="2" stroke-miterlimit="10" d="M176.232,225.477
		c-0.798,15.063-9.206,19.75-19.049,19.75s-17.7-9.875-17.555-20.721c0.151-11.224,9.316-20.404,19.159-20.404
		C168.629,204.102,176.867,213.48,176.232,225.477z"/>
	<path fill="none" stroke="#FFFFFF" stroke-miterlimit="10" d="M215.732,221.477c0,11.211-6.289,20.299-17.5,20.299
		c-11.211,0-20.625-8.713-20.625-19.924c0-11.211,6.79-22.375,18-22.375C206.818,199.477,215.732,210.267,215.732,221.477z"/>
	<path fill="none" stroke="#FFFFFF" stroke-width="2" stroke-miterlimit="10" d="M215.732,221.477
		c0,11.211-6.289,20.299-17.5,20.299c-11.21,0-20.625-8.713-20.625-19.924c0-11.211,6.79-22.375,18-22.375
		C206.818,199.477,215.732,210.267,215.732,221.477z"/>
	<path fill="none" stroke="#FFFFFF" stroke-miterlimit="10" d="M167.857,219.352c0,6.903-4.097,12.875-11,12.875
		c-6.903,0-11.625-6.347-11.625-13.25c0-6.903,3.847-12.5,10.75-12.5C162.885,206.477,167.857,212.449,167.857,219.352z"/>
	<path fill="none" stroke="#FFFFFF" stroke-miterlimit="10" d="M205.99,214.852c0,6.903-4.097,12.875-11,12.875
		c-6.903,0-11.625-6.347-11.625-13.25c0-6.903,3.847-12.5,10.75-12.5C201.018,201.977,205.99,207.949,205.99,214.852z"/>
	<polygon fill="none" stroke="#FFFFFF" stroke-miterlimit="10" points="184.844,242.727 172.219,245.227 181.969,258.603 	"/>
	
		<polygon fill="none" stroke="#FFFFFF" stroke-width="2" stroke-linecap="round" stroke-linejoin="round" stroke-miterlimit="10" points="
		185.357,242.727 172.732,245.227 182.482,258.603 	"/>
	<path fill="none" stroke="#FFFFFF" stroke-width="2" stroke-linecap="round" stroke-linejoin="round" stroke-miterlimit="10" d="
		M141.451,214.852c0,0-10.886-14.832-17.552-19.499c0,0,2.5,30.5,16.216,41.666l0,0c0,0-3.996-12.745,2.014-22.167"/>
	<path fill="none" stroke="#FFFFFF" stroke-width="2" stroke-linejoin="round" stroke-miterlimit="10" d="M123.898,194.854
		c0,0,28.549-0.213,37.691,1.894c0,0-13.758,4.271-20.141,18.105C141.449,214.852,128.731,198.688,123.898,194.854z"/>
	<path fill="none" stroke="#FFFFFF" stroke-width="2" stroke-linejoin="round" stroke-miterlimit="10" d="M223.899,180.854
		c0,0-26.456,5.114-34.562,13.474c0,0,15.283,2.605,21.526,11.056C210.864,205.383,214.733,190.188,223.899,180.854z"/>
	<path fill="none" stroke="#FFFFFF" stroke-width="2" stroke-linecap="round" stroke-linejoin="round" stroke-miterlimit="10" d="
		M223.899,181.02c0,0-8.346,7.166-12.673,23.083c0,0,7.079,9.267,8.006,15.25C219.232,219.352,226.733,191.52,223.899,181.02z"/>
	<path fill="none" stroke="#FFFFFF" stroke-width="2" stroke-linecap="round" stroke-linejoin="round" stroke-miterlimit="10" d="
		M172.219,261.685c0,0-2.82,4.334-5.153,3.834c0,0,2.833,7.501-3.167,7.834c0,0,7.042,1.237,8.833-3.334
		c0,0-6.167,13.666-2.833,17.5c0,0,1.333,2.166,4,3c0,0,18.224,0,20.779,0c0,0,17.387-3.218-1.112-30.5
		C193.565,260.02,180.206,263.352,172.219,261.685z"/>
	<path fill="none" stroke="#FFFFFF" stroke-width="2" stroke-linecap="round" stroke-linejoin="round" stroke-miterlimit="10" d="
		M167.857,268.853c0,2.407-1.452,4.357-3.958,4.357c-2.506,0-4.538-1.95-4.538-4.357c0-2.407,2.032-4.357,4.538-4.357
		C166.405,264.496,167.857,266.446,167.857,268.853z"/>
	<path fill="none" stroke="#FFFFFF" stroke-width="2" stroke-linecap="round" stroke-linejoin="round" stroke-miterlimit="10" d="
		M202.265,278.79c0,0,4.634-4.104,4.967-12.937c0.123-3.269,9.084-8.167,9.084,2c0,0-1.337,13.167-17.417,20.667
		C198.899,288.521,203.829,285.373,202.265,278.79z"/>
	<path fill="none" stroke="#FFFFFF" stroke-miterlimit="10" d="M155.857,279.29l-0.5-0.938c-3.382-1.973-7.813,1.438-7.813,1.438
		c-4.643,8.376,4.063,11.188,4.063,11.188C148.357,284.978,155.857,279.29,155.857,279.29z"/>
</g>
<g>
	
		<ellipse transform="matrix(0.8829 -0.4696 0.4696 0.8829 -103.5723 156.1826)" fill="none" stroke="#FFFFFF" stroke-miterlimit="10" cx="261.348" cy="285.746" rx="1.519" ry="1.43"/>
	
		<ellipse transform="matrix(0.8828 -0.4697 0.4697 0.8828 -102.4194 157.5495)" fill="none" stroke="#FFFFFF" stroke-miterlimit="10" cx="264.549" cy="284.043" rx="1.519" ry="1.43"/>
	<path fill="none" stroke="#FFFFFF" stroke-miterlimit="10" d="M265.522,285.145c0.371,0.697,0.298,2.127-0.868,2.747
		c-1.514,0.807-2.595-0.265-2.871-0.783c-0.371-0.697-0.711-1.882,0.976-2.779C264.099,283.615,265.151,284.447,265.522,285.145z"/>
	<path fill="none" stroke="#FFFFFF" stroke-miterlimit="10" d="M260.155,290.272c0.436,0.187,1.003-0.144,1.267-0.735
		c0.264-0.589,0.122-1.22-0.314-1.404c-0.438-0.186-1.006,0.145-1.27,0.734C259.576,289.459,259.715,290.088,260.155,290.272z"/>
	<path fill="none" stroke="#FFFFFF" stroke-miterlimit="10" d="M263.906,291.431c0.475-0.002,0.86-0.533,0.863-1.181
		c0.002-0.648-0.382-1.17-0.856-1.166c-0.476,0.005-0.86,0.535-0.864,1.182C263.047,290.915,263.429,291.438,263.906,291.431z"/>
	<path fill="none" stroke="#FFFFFF" stroke-miterlimit="10" d="M268.484,288.718c0.199-0.431-0.118-1.007-0.702-1.286
		c-0.586-0.281-1.221-0.157-1.419,0.273c-0.198,0.431,0.118,1.009,0.702,1.289C267.652,289.273,268.287,289.15,268.484,288.718z"/>
	<path fill="none" stroke="#FFFFFF" stroke-miterlimit="10" d="M269.517,285.103c0.026-0.474-0.482-0.899-1.13-0.95
		c-0.649-0.054-1.195,0.292-1.222,0.766c-0.026,0.475,0.482,0.903,1.13,0.954C268.945,285.923,269.492,285.58,269.517,285.103z"/>
</g>
<g>
	
		<ellipse transform="matrix(0.9333 0.3591 -0.3591 0.9333 115.3259 -83.3169)" fill="none" stroke="#FFFFFF" stroke-miterlimit="10" cx="281.936" cy="268.776" rx="1.519" ry="1.43"/>
	
		<ellipse transform="matrix(0.9333 0.3592 -0.3592 0.9333 116.0572 -84.4636)" fill="none" stroke="#FFFFFF" stroke-miterlimit="10" cx="285.32" cy="270.078" rx="1.518" ry="1.43"/>
	<path fill="none" stroke="#FFFFFF" stroke-miterlimit="10" d="M285.124,271.534c-0.283,0.737-1.411,1.619-2.643,1.145
		c-1.601-0.615-1.5-2.134-1.289-2.683c0.283-0.736,0.955-1.77,2.738-1.084C285.347,269.457,285.408,270.797,285.124,271.534z"/>
	<path fill="none" stroke="#FFFFFF" stroke-miterlimit="10" d="M277.736,270.842c0.144,0.451,0.765,0.663,1.385,0.475
		c0.617-0.186,1.001-0.707,0.855-1.157c-0.148-0.452-0.77-0.664-1.387-0.478C277.97,269.871,277.586,270.389,277.736,270.842z"/>
	<path fill="none" stroke="#FFFFFF" stroke-miterlimit="10" d="M279.318,274.434c0.313,0.357,0.967,0.301,1.458-0.122
		c0.49-0.423,0.633-1.055,0.319-1.41c-0.315-0.357-0.968-0.3-1.459,0.121C279.145,273.447,279,274.078,279.318,274.434z"/>
	<path fill="none" stroke="#FFFFFF" stroke-miterlimit="10" d="M284.367,276.113c0.456-0.132,0.683-0.749,0.511-1.373
		c-0.171-0.627-0.681-1.025-1.136-0.893c-0.455,0.133-0.685,0.75-0.514,1.375C283.402,275.849,283.911,276.248,284.367,276.113z"/>
	<path fill="none" stroke="#FFFFFF" stroke-miterlimit="10" d="M287.773,274.524c0.375-0.29,0.364-0.953-0.022-1.476
		c-0.385-0.525-1.004-0.712-1.379-0.421c-0.376,0.291-0.366,0.956,0.02,1.479C286.78,274.63,287.397,274.818,287.773,274.524z"/>
</g>
<g>
	
		<ellipse transform="matrix(0.8352 0.55 -0.55 0.8352 196.7853 -86.7257)" fill="none" stroke="#FFFFFF" stroke-miterlimit="10" cx="243.074" cy="284.926" rx="1.519" ry="1.43"/>
	
		<ellipse transform="matrix(0.8353 0.5498 -0.5498 0.8353 198.2889 -88.0507)" fill="none" stroke="#FFFFFF" stroke-miterlimit="10" cx="246.102" cy="286.921" rx="1.519" ry="1.43"/>
	<path fill="none" stroke="#FFFFFF" stroke-miterlimit="10" d="M245.6,288.303c-0.434,0.66-1.724,1.28-2.827,0.554
		c-1.433-0.942-1.01-2.404-0.688-2.896c0.435-0.66,1.312-1.525,2.907-0.475C246.261,286.321,246.035,287.643,245.6,288.303z"/>
	<path fill="none" stroke="#FFFFFF" stroke-miterlimit="10" d="M238.529,286.047c0.044,0.472,0.605,0.811,1.252,0.76
		c0.643-0.051,1.129-0.477,1.082-0.947c-0.047-0.474-0.609-0.814-1.252-0.763C238.965,285.149,238.48,285.573,238.529,286.047z"/>
	<path fill="none" stroke="#FFFFFF" stroke-miterlimit="10" d="M239.308,289.895c0.23,0.416,0.88,0.5,1.45,0.192
		c0.57-0.309,0.844-0.896,0.613-1.311c-0.232-0.415-0.882-0.499-1.451-0.192C239.35,288.895,239.074,289.479,239.308,289.895z"/>
	<path fill="none" stroke="#FFFFFF" stroke-miterlimit="10" d="M243.882,292.614c0.474-0.031,0.827-0.586,0.793-1.232
		c-0.034-0.649-0.447-1.146-0.92-1.114c-0.473,0.032-0.829,0.587-0.795,1.233C242.997,292.15,243.408,292.648,243.882,292.614z"/>
	<path fill="none" stroke="#FFFFFF" stroke-miterlimit="10" d="M247.55,291.79c0.428-0.204,0.559-0.854,0.293-1.447
		c-0.265-0.596-0.829-0.909-1.258-0.705c-0.429,0.204-0.561,0.855-0.296,1.448C246.557,291.68,247.12,291.996,247.55,291.79z"/>
</g>
<g>
	
		<ellipse transform="matrix(0.9344 -0.3563 0.3563 0.9344 -78.7799 111.7654)" fill="none" stroke="#FFFFFF" stroke-miterlimit="10" cx="263.965" cy="269.708" rx="1.324" ry="1.247"/>
	
		<ellipse transform="matrix(0.9343 -0.3565 0.3565 0.9343 -78.2151 112.8113)" fill="none" stroke="#FFFFFF" stroke-miterlimit="10" cx="266.918" cy="268.582" rx="1.324" ry="1.246"/>
	<path fill="none" stroke="#FFFFFF" stroke-miterlimit="10" d="M267.641,269.641c0.246,0.643,0.028,1.872-1.049,2.282
		c-1.396,0.534-2.215-0.51-2.399-0.988c-0.245-0.645-0.411-1.705,1.145-2.3C266.576,268.163,267.396,268.997,267.641,269.641z"/>
	<path fill="none" stroke="#FFFFFF" stroke-miterlimit="10" d="M262.443,273.495c0.355,0.209,0.883-0.015,1.175-0.499
		c0.292-0.48,0.238-1.042-0.119-1.248c-0.358-0.208-0.886,0.017-1.177,0.497C262.03,272.729,262.082,273.289,262.443,273.495z"/>
	<path fill="none" stroke="#FFFFFF" stroke-miterlimit="10" d="M265.562,274.904c0.411,0.049,0.803-0.368,0.875-0.929
		c0.072-0.561-0.204-1.053-0.615-1.102c-0.412-0.047-0.802,0.369-0.875,0.929C264.876,274.365,265.149,274.857,265.562,274.904z"/>
	<path fill="none" stroke="#FFFFFF" stroke-miterlimit="10" d="M269.817,273.053c0.22-0.352,0.007-0.884-0.468-1.189
		c-0.477-0.307-1.04-0.268-1.258,0.083c-0.218,0.352-0.007,0.886,0.469,1.191C269.038,273.442,269.599,273.406,269.817,273.053z"/>
	<path fill="none" stroke="#FFFFFF" stroke-miterlimit="10" d="M271.102,270.037c0.073-0.406-0.319-0.83-0.874-0.944
		c-0.558-0.116-1.066,0.123-1.141,0.53c-0.074,0.408,0.319,0.834,0.875,0.947C270.518,270.684,271.029,270.447,271.102,270.037z"/>
</g>
<path fill="none" stroke="#000000" stroke-miterlimit="10" d="M179.25,399.5"/>
<g opacity="0.89">
	<path fill="none" stroke="#FFFFFF" stroke-miterlimit="10" d="M41.994,119.56c0,0,1.204,7.223-3.01,15.048
		c0,0-4.815,15.047,6.019,13.242c0,0,10.233,0.15,3.611-14.069C48.614,133.78,46.809,127.986,41.994,119.56z"/>
	<g>
		<path fill="none" stroke="#FFFFFF" stroke-miterlimit="10" d="M40.852,103.158c-0.903-0.51-1.713-1.288-2.416-2.316
			c-0.368-0.548-0.651-1.229-0.879-2.038c-0.222-0.804-0.371-1.724-0.373-2.678c0.002-1.34,0.293-2.795,1.252-3.988
			c0.958-1.201,2.578-1.942,4.649-1.925c0.734,0.002,1.532,0.084,2.405,0.258c0.461,0.104,0.742,0.285,1.073,0.51
			c0.319,0.228,0.637,0.515,0.939,0.861c0.59,0.687,1.162,1.622,1.176,2.815c0.02,1.107-0.62,2.271-1.785,3.052
			c-0.547,0.378-1.297,0.242-1.675-0.303c-0.38-0.548-0.243-1.298,0.302-1.677c0.691-0.508,0.73-0.788,0.75-1.072
			c0.011-0.296-0.186-0.76-0.517-1.155c-0.287-0.372-0.722-0.661-0.778-0.677c-0.723-0.141-1.354-0.204-1.891-0.204
			c-1.573,0.016-2.302,0.465-2.78,1.034c-0.479,0.579-0.716,1.477-0.713,2.471c0,0.698,0.115,1.422,0.286,2.036
			c0.166,0.609,0.403,1.119,0.546,1.321c0.54,0.788,1.085,1.279,1.617,1.582c0.534,0.301,1.064,0.428,1.655,0.43
			c0.989,0.005,2.169-0.404,3.392-1.138c1.22-0.729,2.466-1.756,3.609-2.864c0.841-0.813,1.624-1.665,2.316-2.466
			c-1.766-1.38-3.444-3.061-4.963-5.158c-0.01-0.014-0.014-0.031-0.024-0.047c-0.006-0.007-0.017-0.012-0.022-0.021l-0.058-0.082
			l-0.19-0.273c-0.169-0.242-0.422-0.597-0.748-1.037c-0.651-0.881-1.593-2.109-2.737-3.468c-2.282-2.718-5.408-5.96-8.487-7.984
			c-2.049-1.364-4.032-2.119-5.543-2.102c-0.796,0.004-1.477,0.169-2.188,0.566c-0.705,0.402-1.458,1.07-2.226,2.191
			c-0.16,0.219-0.506,0.94-0.738,1.806c-0.243,0.87-0.408,1.912-0.407,2.895c-0.002,1.044,0.187,2.008,0.537,2.701
			c0.362,0.698,0.792,1.162,1.635,1.533c0.568,0.242,1.36,0.421,2.468,0.421c0.741,0,1.627-0.089,2.645-0.28l0.45-0.353
			c0.362-0.324,0.74-0.804,0.92-1.201c0.125-0.268,0.166-0.482,0.165-0.619l-0.106-0.371c-0.093-0.16-0.295-0.418-0.76-0.741
			c-1.093-0.757-1.366-2.257-0.609-3.351c0.757-1.093,2.257-1.366,3.351-0.609c0.929,0.644,1.678,1.408,2.188,2.295
			c0.514,0.879,0.756,1.864,0.751,2.776c-0.015,1.756-0.761,3.139-1.557,4.186c-0.831,1.056-1.708,1.806-2.68,2.318
			c-0.291,0.144-0.592,0.278-1.031,0.369c-1.345,0.266-2.581,0.395-3.728,0.395c-1.626,0-3.081-0.266-4.347-0.802
			c-1.265-0.534-2.321-1.347-3.096-2.306c-1.56-1.942-2.008-4.268-2.012-6.362c0.001-1.498,0.234-2.925,0.582-4.183
			c0.357-1.262,0.794-2.328,1.403-3.235c1.094-1.604,2.377-2.84,3.824-3.661c1.442-0.823,3.028-1.199,4.564-1.194
			c2.972,0.017,5.699,1.263,8.196,2.899c2.498,1.653,4.794,3.765,6.787,5.85c0.317,0.331,0.611,0.661,0.913,0.99
			c0.151-2.048,0.569-4.176,1.387-6.2c1.052-2.601,2.826-5.079,5.565-6.623c1.816-1.032,4.015-1.606,6.489-1.601
			c2.22,0,4.663,0.444,7.378,1.382c1.098,0.397,1.911,1.048,2.724,1.841c0.8,0.799,1.554,1.766,2.231,2.866
			c1.34,2.201,2.409,4.935,2.423,7.891c0.006,1.914-0.499,3.955-1.764,5.727c-1.259,1.777-3.215,3.2-5.786,4.133
			c-1.162,0.423-2.313,0.635-3.418,0.632c-2.449,0.009-4.586-1.053-5.996-2.591c-1.419-1.542-2.209-3.527-2.215-5.582
			c-0.002-1.401,0.389-2.856,1.259-4.112c0.864-1.256,2.196-2.264,3.827-2.836c1.253-0.444,2.63,0.212,3.074,1.462
			c0.444,1.253-0.211,2.631-1.463,3.076c-0.796,0.289-1.207,0.656-1.477,1.039c-0.266,0.386-0.402,0.839-0.405,1.371
			c-0.007,0.774,0.334,1.672,0.931,2.307c0.606,0.637,1.371,1.042,2.464,1.051c0.5,0,1.083-0.092,1.768-0.341
			c1.869-0.687,2.897-1.542,3.511-2.4c0.608-0.863,0.868-1.813,0.874-2.936c0.003-1.204-0.341-2.575-0.908-3.842
			c-0.558-1.268-1.338-2.429-2.05-3.212c-0.468-0.52-0.924-0.868-1.114-0.961l-0.064-0.033c-2.313-0.799-4.236-1.119-5.804-1.117
			c-1.756,0.002-3.061,0.383-4.122,0.978c-1.056,0.597-1.893,1.439-2.578,2.502c-1.374,2.111-2.01,5.166-2,7.907
			c-0.001,1.335,0.144,2.591,0.369,3.585c0.213,0.99,0.559,1.729,0.699,1.9c1.284,1.766,2.638,3.115,4.033,4.204
			c0.395-0.442,1.052-0.555,1.558-0.214c0.508,0.341,0.651,1,0.384,1.531c0.369,0.216,0.737,0.447,1.111,0.628
			c2.49,1.199,5.111,1.688,7.786,1.69c5.106,0.012,10.373-1.855,14.397-3.842c2.697-1.326,4.812-2.676,6.003-3.489
			c-2.302-2.894-4-6.132-5.223-9.344c-3.453-9.115-3.454-18.015-3.464-18.466l0.001-0.078c0.002-0.035,0.021-0.066,0.024-0.101
			c-21.682-16.526-37.927,1.947-37.927,1.947c-42.133,1.806-21.066,30.095-21.066,30.095c8.522,17.575,21.276,13.475,24.102,12.296
			C42.713,103.896,41.743,103.668,40.852,103.158z"/>
		<path fill="none" stroke="#FFFFFF" stroke-miterlimit="10" d="M132.117,77.156c-12.227-37.701-40.402-22.795-48.77-17.326
			c0.001,0.496,0.073,5.071,1.345,10.634c1.319,5.843,3.995,12.624,8.9,16.891c3.279,2.852,7.493,4.738,13.466,4.754l0.622-0.007
			c0.271,0.005,1.037-0.153,1.935-0.543c0.906-0.383,1.973-0.974,3.044-1.721c2.153-1.491,4.317-3.632,5.61-5.951
			c0.869-1.547,1.358-3.141,1.357-4.73c-0.006-1.458-0.388-2.951-1.43-4.602c-1.044-1.646-2.786-3.435-5.509-5.25
			c-0.017-0.021-0.349-0.184-0.851-0.282c-0.503-0.106-1.176-0.174-1.924-0.174c-1.577-0.005-3.489,0.308-5.132,0.971
			c-1.657,0.663-2.995,1.646-3.753,2.871c-0.509,0.823-0.819,1.772-0.825,3.063c0,0.844,0.144,1.834,0.502,2.996
			c0.435,1.385,1.078,2.186,1.766,2.699c0.691,0.508,1.483,0.741,2.302,0.743c0.971,0.005,1.941-0.36,2.583-0.917
			c0.643-0.571,0.994-1.22,1.006-2.163c0-0.36-0.058-0.773-0.211-1.253c-0.405-1.268,0.294-2.622,1.561-3.026
			c1.266-0.407,2.622,0.294,3.026,1.559c0.293,0.917,0.44,1.832,0.44,2.72c0.013,2.387-1.102,4.482-2.69,5.822
			c-1.589,1.354-3.619,2.069-5.714,2.074c-1.758,0.002-3.589-0.524-5.158-1.681c-1.57-1.15-2.825-2.918-3.509-5.151
			c-0.482-1.554-0.718-3.028-0.718-4.42c-0.006-2.128,0.574-4.053,1.556-5.617c0.98-1.568,2.324-2.765,3.78-3.656
			c2.927-1.775,6.302-2.436,9.188-2.448c1.034,0,2.009,0.089,2.911,0.277c0.903,0.195,1.734,0.463,2.536,0.988
			c3.143,2.095,5.405,4.321,6.902,6.672c1.496,2.344,2.187,4.822,2.182,7.186c-0.01,3.894-1.764,7.312-4.01,10.037
			c-2.264,2.734-5.062,4.846-7.652,6.193c-1.748,0.884-3.342,1.472-4.994,1.531c-0.244,0.004-0.486,0.007-0.728,0.007
			c-6.951,0.017-12.453-2.32-16.497-5.833c-1.098,0.778-3.523,2.407-6.799,4.056c-4.466,2.236-10.492,4.535-16.945,4.547
			c-3.264,0.002-6.646-0.609-9.877-2.168c-0.662-0.317-1.31-0.703-1.954-1.103c-1.599,1.874-3.728,4.067-6.05,5.612
			c-1.423,0.936-2.952,1.625-4.557,1.794c22.215,31.591,42.594,5.829,42.594,5.829C138.737,123.502,132.117,77.156,132.117,77.156z"
			/>
	</g>
</g>
<g opacity="0.45">
	<path fill="none" stroke="#FFFFFF" stroke-miterlimit="10" d="M195.919,106.617c0,0,0.547,3.28-1.366,6.833
		c0,0-2.186,6.832,2.732,6.012c0,0,4.646,0.068,1.64-6.388C198.925,113.073,198.106,110.443,195.919,106.617z"/>
	<g>
		<path fill="none" stroke="#FFFFFF" stroke-miterlimit="10" d="M195.401,99.17c-0.409-0.231-0.777-0.584-1.097-1.051
			c-0.167-0.249-0.296-0.558-0.399-0.925c-0.101-0.365-0.168-0.783-0.169-1.216c0.001-0.609,0.133-1.27,0.568-1.811
			c0.436-0.545,1.171-0.882,2.111-0.874c0.333,0.001,0.695,0.039,1.092,0.118c0.209,0.047,0.337,0.129,0.487,0.231
			c0.145,0.104,0.289,0.234,0.427,0.391c0.268,0.312,0.527,0.737,0.533,1.278c0.01,0.503-0.281,1.031-0.81,1.386
			c-0.249,0.172-0.589,0.11-0.761-0.138c-0.173-0.248-0.11-0.589,0.137-0.761c0.314-0.23,0.332-0.357,0.341-0.487
			c0.005-0.134-0.084-0.345-0.234-0.524c-0.131-0.169-0.328-0.3-0.354-0.308c-0.328-0.064-0.615-0.093-0.858-0.093
			c-0.714,0.007-1.045,0.212-1.263,0.47c-0.217,0.263-0.325,0.67-0.323,1.122c0,0.317,0.052,0.646,0.129,0.924
			c0.075,0.276,0.184,0.508,0.248,0.6c0.245,0.358,0.493,0.581,0.734,0.719c0.242,0.137,0.483,0.194,0.752,0.195
			c0.448,0.002,0.984-0.184,1.539-0.517c0.555-0.331,1.12-0.798,1.639-1.3c0.382-0.37,0.737-0.756,1.052-1.12
			c-0.802-0.626-1.564-1.39-2.254-2.342c-0.004-0.006-0.006-0.014-0.011-0.022c-0.003-0.003-0.008-0.005-0.01-0.009l-0.026-0.038
			l-0.087-0.124c-0.077-0.11-0.191-0.271-0.339-0.471c-0.296-0.4-0.724-0.958-1.243-1.574c-1.036-1.234-2.455-2.706-3.852-3.625
			c-0.931-0.62-1.831-0.962-2.517-0.955c-0.361,0.002-0.671,0.077-0.993,0.257c-0.32,0.183-0.662,0.485-1.011,0.995
			c-0.072,0.1-0.23,0.427-0.335,0.82c-0.11,0.395-0.186,0.868-0.185,1.314c-0.002,0.474,0.084,0.912,0.243,1.226
			c0.165,0.317,0.36,0.527,0.742,0.696c0.258,0.11,0.618,0.191,1.121,0.191c0.336,0,0.738-0.04,1.201-0.127l0.204-0.16
			c0.164-0.147,0.336-0.365,0.418-0.545c0.057-0.122,0.075-0.219,0.074-0.281l-0.048-0.169c-0.042-0.073-0.134-0.19-0.345-0.336
			c-0.496-0.344-0.62-1.025-0.276-1.521c0.344-0.497,1.024-0.62,1.521-0.277c0.421,0.293,0.762,0.64,0.993,1.042
			c0.233,0.399,0.343,0.847,0.341,1.261c-0.007,0.797-0.346,1.425-0.707,1.9c-0.377,0.479-0.775,0.82-1.217,1.052
			c-0.132,0.065-0.269,0.126-0.468,0.168c-0.61,0.121-1.172,0.179-1.692,0.179c-0.738,0-1.399-0.12-1.974-0.364
			c-0.574-0.242-1.054-0.612-1.406-1.047c-0.708-0.882-0.911-1.938-0.913-2.889c0-0.68,0.107-1.328,0.264-1.899
			c0.162-0.573,0.36-1.057,0.638-1.469c0.496-0.728,1.079-1.29,1.735-1.662c0.655-0.374,1.375-0.544,2.073-0.542
			c1.349,0.008,2.587,0.573,3.721,1.316c1.135,0.751,2.177,1.709,3.081,2.656c0.145,0.15,0.278,0.3,0.415,0.449
			c0.068-0.93,0.258-1.896,0.63-2.815c0.478-1.181,1.283-2.306,2.526-3.007c0.824-0.468,1.822-0.729,2.946-0.727
			c1.008,0,2.117,0.202,3.35,0.627c0.499,0.18,0.867,0.476,1.237,0.836c0.363,0.363,0.705,0.801,1.013,1.301
			c0.608,0.999,1.094,2.241,1.1,3.582c0.003,0.869-0.226,1.795-0.801,2.6c-0.571,0.807-1.459,1.453-2.627,1.877
			c-0.527,0.192-1.05,0.288-1.552,0.287c-1.112,0.004-2.082-0.479-2.722-1.176c-0.645-0.701-1.003-1.602-1.006-2.535
			c-0.001-0.636,0.177-1.297,0.571-1.867c0.393-0.57,0.997-1.028,1.737-1.288c0.569-0.202,1.194,0.096,1.395,0.664
			c0.202,0.569-0.095,1.194-0.664,1.397c-0.361,0.131-0.548,0.297-0.67,0.472c-0.121,0.175-0.183,0.381-0.184,0.622
			c-0.003,0.352,0.152,0.759,0.423,1.047c0.275,0.29,0.623,0.473,1.119,0.478c0.228,0,0.492-0.042,0.803-0.155
			c0.849-0.312,1.315-0.7,1.594-1.09c0.276-0.392,0.395-0.823,0.397-1.333c0.001-0.547-0.155-1.169-0.412-1.745
			c-0.254-0.575-0.607-1.103-0.932-1.458c-0.212-0.236-0.419-0.394-0.506-0.437l-0.029-0.015c-1.05-0.363-1.923-0.508-2.635-0.507
			c-0.798,0.001-1.39,0.174-1.871,0.444c-0.479,0.271-0.859,0.653-1.171,1.136c-0.624,0.959-0.913,2.345-0.908,3.59
			c0,0.606,0.066,1.176,0.168,1.627c0.097,0.45,0.254,0.785,0.317,0.863c0.583,0.802,1.198,1.415,1.831,1.909
			c0.179-0.201,0.478-0.252,0.707-0.097c0.23,0.155,0.296,0.454,0.175,0.695c0.167,0.098,0.334,0.203,0.504,0.285
			c1.131,0.545,2.321,0.767,3.535,0.768c2.318,0.005,4.71-0.842,6.537-1.744c1.225-0.602,2.184-1.215,2.725-1.585
			c-1.045-1.314-1.816-2.784-2.371-4.242c-1.568-4.139-1.568-8.179-1.573-8.384v-0.035c0.001-0.016,0.01-0.03,0.012-0.046
			c-9.845-7.503-17.221,0.884-17.221,0.884c-19.129,0.82-9.564,13.663-9.564,13.663c3.869,7.979,9.66,6.118,10.943,5.583
			C196.247,99.505,195.806,99.402,195.401,99.17z"/>
		<path fill="none" stroke="#FFFFFF" stroke-miterlimit="10" d="M236.837,87.365c-5.551-17.117-18.343-10.349-22.143-7.866
			c0.001,0.225,0.033,2.303,0.61,4.828c0.6,2.653,1.814,5.731,4.041,7.669c1.489,1.295,3.402,2.151,6.114,2.159l0.282-0.003
			c0.123,0.002,0.472-0.069,0.879-0.247c0.411-0.174,0.895-0.442,1.382-0.781c0.978-0.677,1.96-1.649,2.547-2.702
			c0.395-0.702,0.616-1.426,0.616-2.147c-0.003-0.662-0.177-1.34-0.649-2.089c-0.474-0.747-1.265-1.56-2.501-2.384
			c-0.008-0.009-0.158-0.083-0.387-0.128c-0.229-0.048-0.533-0.079-0.873-0.079c-0.716-0.002-1.584,0.14-2.33,0.441
			c-0.753,0.301-1.36,0.747-1.704,1.304c-0.23,0.374-0.372,0.805-0.374,1.391c0,0.383,0.064,0.832,0.228,1.36
			c0.197,0.628,0.489,0.993,0.802,1.225c0.313,0.231,0.674,0.336,1.045,0.337c0.441,0.002,0.882-0.164,1.173-0.416
			c0.292-0.259,0.451-0.554,0.457-0.982c0-0.163-0.026-0.351-0.096-0.569c-0.184-0.576,0.133-1.19,0.708-1.374
			c0.575-0.185,1.19,0.133,1.374,0.708c0.133,0.416,0.2,0.832,0.2,1.235c0.005,1.084-0.501,2.035-1.222,2.643
			c-0.722,0.615-1.643,0.939-2.595,0.942c-0.798,0.001-1.629-0.238-2.342-0.764c-0.713-0.522-1.282-1.325-1.593-2.339
			c-0.219-0.706-0.326-1.375-0.326-2.007c-0.003-0.966,0.261-1.84,0.707-2.55c0.444-0.712,1.055-1.255,1.716-1.66
			c1.329-0.806,2.861-1.106,4.172-1.111c0.47,0,0.912,0.041,1.321,0.126c0.41,0.088,0.787,0.21,1.151,0.448
			c1.427,0.951,2.454,1.962,3.134,3.029c0.679,1.065,0.992,2.19,0.99,3.263c-0.004,1.768-0.801,3.32-1.82,4.557
			c-1.028,1.241-2.299,2.2-3.475,2.812c-0.793,0.401-1.518,0.668-2.267,0.695c-0.111,0.003-0.221,0.003-0.331,0.003
			c-3.156,0.007-5.653-1.054-7.49-2.648c-0.498,0.353-1.6,1.093-3.087,1.841c-2.027,1.015-4.764,2.059-7.693,2.064
			c-1.481,0.001-3.018-0.276-4.484-0.984c-0.3-0.145-0.594-0.319-0.887-0.501c-0.725,0.851-1.692,1.847-2.746,2.548
			c-0.646,0.425-1.341,0.738-2.069,0.814c10.086,14.343,19.339,2.646,19.339,2.646C239.843,108.407,236.837,87.365,236.837,87.365z"
			/>
	</g>
</g>
<g opacity="0.86">
	<path fill="none" stroke="#FFFFFF" stroke-miterlimit="10" d="M393.025,68.392c0,0-0.732,4.393,1.83,9.152
		c0,0,2.929,9.151-3.66,8.053c0,0-6.224,0.091-2.196-8.557C388.999,77.04,390.097,73.517,393.025,68.392z"/>
	<g>
		<path fill="none" stroke="#FFFFFF" stroke-miterlimit="10" d="M393.72,58.417c0.549-0.31,1.042-0.783,1.469-1.408
			c0.224-0.333,0.397-0.748,0.535-1.24c0.135-0.489,0.226-1.048,0.227-1.629c-0.001-0.815-0.178-1.7-0.762-2.425
			c-0.582-0.73-1.567-1.181-2.827-1.171c-0.446,0.001-0.932,0.051-1.463,0.157c-0.28,0.063-0.451,0.173-0.652,0.311
			c-0.194,0.139-0.388,0.313-0.571,0.523c-0.359,0.417-0.707,0.986-0.716,1.712c-0.012,0.673,0.377,1.381,1.086,1.856
			c0.332,0.23,0.788,0.147,1.019-0.185c0.231-0.333,0.148-0.79-0.184-1.02c-0.421-0.308-0.444-0.479-0.456-0.651
			c-0.007-0.181,0.112-0.462,0.314-0.703c0.175-0.226,0.439-0.402,0.474-0.412c0.44-0.085,0.823-0.125,1.149-0.125
			c0.956,0.01,1.399,0.283,1.69,0.629c0.291,0.352,0.435,0.898,0.435,1.503c0,0.424-0.07,0.865-0.174,1.238
			c-0.101,0.37-0.245,0.681-0.332,0.803c-0.329,0.479-0.66,0.778-0.983,0.962c-0.325,0.183-0.648,0.26-1.007,0.262
			c-0.601,0.003-1.319-0.246-2.063-0.692c-0.742-0.443-1.5-1.068-2.195-1.742c-0.511-0.495-0.987-1.013-1.408-1.5
			c1.074-0.839,2.095-1.862,3.019-3.137c0.006-0.009,0.009-0.019,0.015-0.029c0.004-0.004,0.011-0.007,0.014-0.013l0.035-0.05
			l0.116-0.166c0.103-0.147,0.256-0.363,0.454-0.631c0.396-0.536,0.969-1.283,1.665-2.109c1.388-1.653,3.288-3.625,5.161-4.856
			c1.246-0.83,2.452-1.288,3.371-1.278c0.483,0.002,0.898,0.103,1.33,0.344c0.43,0.245,0.887,0.651,1.354,1.333
			c0.098,0.133,0.308,0.572,0.449,1.098c0.148,0.529,0.248,1.163,0.247,1.76c0.002,0.635-0.113,1.221-0.326,1.643
			c-0.221,0.425-0.482,0.707-0.995,0.933c-0.345,0.147-0.827,0.256-1.501,0.256c-0.45,0-0.989-0.054-1.608-0.17l-0.273-0.215
			c-0.221-0.197-0.45-0.489-0.56-0.73c-0.076-0.163-0.102-0.293-0.101-0.376l0.064-0.226c0.057-0.097,0.18-0.254,0.462-0.45
			c0.665-0.461,0.831-1.373,0.37-2.038c-0.46-0.665-1.373-0.831-2.037-0.37c-0.565,0.392-1.021,0.857-1.331,1.396
			c-0.313,0.535-0.46,1.134-0.457,1.689c0.01,1.068,0.463,1.909,0.947,2.545c0.505,0.642,1.038,1.098,1.63,1.41
			c0.177,0.087,0.36,0.169,0.627,0.224c0.818,0.162,1.569,0.24,2.267,0.24c0.989,0,1.874-0.161,2.645-0.487
			c0.769-0.325,1.411-0.819,1.883-1.403c0.948-1.181,1.221-2.595,1.224-3.869c-0.001-0.911-0.143-1.779-0.354-2.544
			c-0.218-0.768-0.483-1.416-0.853-1.967c-0.665-0.975-1.445-1.728-2.326-2.227c-0.877-0.5-1.842-0.729-2.775-0.727
			c-1.808,0.01-3.466,0.768-4.985,1.763c-1.519,1.005-2.915,2.289-4.127,3.558c-0.193,0.202-0.372,0.402-0.555,0.602
			c-0.093-1.246-0.347-2.54-0.844-3.771c-0.64-1.582-1.719-3.089-3.385-4.028c-1.104-0.627-2.441-0.976-3.946-0.974
			c-1.351,0-2.836,0.271-4.487,0.841c-0.668,0.242-1.162,0.638-1.656,1.12c-0.487,0.486-0.945,1.074-1.357,1.743
			c-0.814,1.338-1.465,3.001-1.474,4.799c-0.004,1.164,0.304,2.405,1.072,3.483c0.766,1.081,1.956,1.946,3.52,2.514
			c0.706,0.257,1.407,0.386,2.079,0.384c1.489,0.006,2.789-0.641,3.646-1.576c0.862-0.938,1.343-2.145,1.347-3.394
			c0.001-0.852-0.236-1.737-0.766-2.501c-0.525-0.764-1.336-1.377-2.327-1.725c-0.763-0.27-1.6,0.129-1.87,0.89
			c-0.27,0.762,0.128,1.6,0.891,1.87c0.483,0.176,0.733,0.399,0.897,0.632c0.162,0.234,0.245,0.51,0.246,0.833
			c0.005,0.471-0.203,1.017-0.566,1.403c-0.368,0.387-0.833,0.633-1.498,0.639c-0.305,0-0.659-0.056-1.075-0.208
			c-1.137-0.417-1.763-0.938-2.136-1.46c-0.37-0.524-0.527-1.103-0.531-1.786c-0.002-0.732,0.207-1.566,0.552-2.336
			c0.34-0.771,0.814-1.477,1.247-1.954c0.284-0.316,0.561-0.528,0.678-0.584l0.039-0.021c1.406-0.486,2.576-0.681,3.53-0.679
			c1.068,0.001,1.861,0.233,2.507,0.595c0.642,0.363,1.15,0.875,1.567,1.522c0.836,1.284,1.223,3.142,1.216,4.809
			c0.001,0.812-0.087,1.576-0.224,2.181c-0.13,0.602-0.34,1.051-0.426,1.155c-0.781,1.074-1.604,1.895-2.452,2.557
			c-0.24-0.269-0.64-0.337-0.947-0.13c-0.309,0.208-0.396,0.608-0.234,0.931c-0.225,0.131-0.448,0.271-0.675,0.382
			c-1.515,0.729-3.109,1.026-4.735,1.028c-3.106,0.007-6.309-1.128-8.757-2.336c-1.64-0.806-2.926-1.627-3.65-2.122
			c1.399-1.76,2.433-3.729,3.176-5.682c2.101-5.544,2.101-10.956,2.107-11.23l-0.001-0.047c-0.001-0.021-0.013-0.04-0.015-0.062
			c13.186-10.051,23.066,1.184,23.066,1.184c25.624,1.098,12.813,18.303,12.813,18.303c-5.184,10.688-12.94,8.195-14.658,7.479
			C392.588,58.866,393.178,58.727,393.72,58.417z"/>
		<path fill="none" stroke="#FFFFFF" stroke-miterlimit="10" d="M338.216,42.604c7.436-22.929,24.57-13.863,29.659-10.537
			c0,0.302-0.044,3.085-0.817,6.467c-0.803,3.554-2.43,7.677-5.413,10.272c-1.994,1.735-4.557,2.881-8.189,2.892l-0.379-0.004
			c-0.164,0.003-0.63-0.093-1.177-0.33c-0.551-0.233-1.199-0.592-1.851-1.047c-1.31-0.907-2.625-2.209-3.412-3.619
			c-0.528-0.941-0.825-1.91-0.825-2.877c0.004-0.887,0.236-1.794,0.87-2.798c0.635-1.001,1.694-2.089,3.35-3.193
			c0.011-0.013,0.213-0.112,0.518-0.172c0.307-0.064,0.716-0.105,1.171-0.105c0.959-0.003,2.122,0.187,3.121,0.59
			c1.008,0.403,1.821,1.001,2.282,1.746c0.309,0.5,0.498,1.078,0.501,1.863c0,0.514-0.087,1.116-0.305,1.822
			c-0.265,0.842-0.656,1.33-1.074,1.642c-0.42,0.309-0.902,0.45-1.399,0.452c-0.591,0.003-1.181-0.219-1.571-0.558
			c-0.391-0.347-0.604-0.742-0.611-1.315c0-0.219,0.034-0.47,0.128-0.762c0.246-0.771-0.179-1.595-0.949-1.841
			c-0.77-0.247-1.595,0.179-1.84,0.948c-0.179,0.558-0.268,1.114-0.268,1.654c-0.008,1.452,0.67,2.726,1.636,3.541
			c0.967,0.824,2.2,1.258,3.476,1.261c1.068,0.001,2.183-0.319,3.137-1.022c0.955-0.699,1.718-1.774,2.134-3.133
			c0.293-0.945,0.437-1.842,0.437-2.688c0.004-1.294-0.349-2.465-0.946-3.416c-0.597-0.954-1.414-1.681-2.299-2.223
			c-1.78-1.08-3.833-1.481-5.588-1.489c-0.629,0-1.222,0.054-1.771,0.168c-0.549,0.119-1.055,0.282-1.542,0.601
			c-1.911,1.274-3.287,2.628-4.197,4.058c-0.91,1.426-1.33,2.933-1.327,4.37c0.006,2.368,1.072,4.447,2.439,6.104
			c1.377,1.663,3.079,2.947,4.654,3.766c1.063,0.538,2.032,0.895,3.036,0.931c0.148,0.002,0.296,0.004,0.443,0.004
			c4.228,0.01,7.573-1.411,10.033-3.547c0.667,0.473,2.143,1.464,4.135,2.466c2.716,1.36,6.381,2.758,10.306,2.766
			c1.984,0.001,4.041-0.371,6.006-1.318c0.402-0.193,0.797-0.428,1.188-0.67c0.972,1.139,2.268,2.474,3.68,3.413
			c0.865,0.569,1.795,0.988,2.771,1.091c-13.511,19.212-25.904,3.544-25.904,3.544C334.188,70.79,338.216,42.604,338.216,42.604z"/>
	</g>
</g>
<g opacity="0.69">
	<path fill="none" stroke="#FFFFFF" stroke-miterlimit="10" d="M268.855,51.441c0,0-0.733,4.393,1.83,9.152
		c0,0,2.929,9.151-3.66,8.053c0,0-6.224,0.091-2.196-8.557C264.829,60.09,265.927,56.566,268.855,51.441z"/>
	<g>
		<path fill="none" stroke="#FFFFFF" stroke-miterlimit="10" d="M269.55,41.466c0.549-0.31,1.042-0.783,1.469-1.408
			c0.224-0.333,0.396-0.748,0.535-1.24c0.135-0.489,0.226-1.048,0.227-1.629c-0.001-0.815-0.178-1.7-0.762-2.425
			c-0.582-0.73-1.567-1.181-2.827-1.171c-0.446,0.001-0.932,0.051-1.463,0.157c-0.28,0.063-0.451,0.173-0.652,0.311
			c-0.194,0.139-0.388,0.313-0.571,0.523c-0.359,0.417-0.707,0.986-0.716,1.712c-0.012,0.673,0.377,1.381,1.086,1.856
			c0.332,0.23,0.788,0.147,1.019-0.185c0.231-0.333,0.148-0.79-0.184-1.02c-0.421-0.309-0.444-0.479-0.456-0.651
			c-0.007-0.181,0.112-0.462,0.314-0.703c0.175-0.226,0.439-0.402,0.474-0.412c0.439-0.085,0.823-0.125,1.149-0.125
			c0.956,0.01,1.399,0.283,1.69,0.629c0.291,0.352,0.436,0.898,0.435,1.503c0,0.424-0.07,0.865-0.174,1.238
			c-0.101,0.37-0.245,0.681-0.332,0.803c-0.329,0.479-0.66,0.778-0.983,0.962c-0.325,0.183-0.647,0.26-1.007,0.262
			c-0.602,0.003-1.319-0.246-2.063-0.692c-0.742-0.443-1.5-1.068-2.195-1.742c-0.511-0.495-0.987-1.013-1.408-1.5
			c1.074-0.839,2.095-1.862,3.019-3.137c0.006-0.009,0.009-0.019,0.015-0.029c0.004-0.004,0.011-0.007,0.014-0.013l0.035-0.05
			l0.116-0.166c0.103-0.147,0.256-0.363,0.454-0.631c0.397-0.536,0.969-1.283,1.665-2.109c1.388-1.653,3.288-3.625,5.161-4.856
			c1.246-0.83,2.452-1.288,3.371-1.278c0.483,0.002,0.898,0.103,1.33,0.344c0.43,0.245,0.887,0.651,1.353,1.333
			c0.098,0.133,0.308,0.572,0.449,1.098c0.147,0.529,0.248,1.163,0.247,1.76c0.002,0.635-0.113,1.221-0.326,1.642
			c-0.221,0.425-0.482,0.707-0.995,0.933c-0.345,0.147-0.827,0.256-1.501,0.256c-0.45,0-0.989-0.054-1.608-0.17l-0.273-0.215
			c-0.221-0.197-0.45-0.489-0.56-0.73c-0.076-0.163-0.102-0.293-0.101-0.376l0.065-0.226c0.057-0.097,0.18-0.254,0.462-0.45
			c0.665-0.461,0.831-1.373,0.37-2.038c-0.46-0.665-1.373-0.831-2.037-0.37c-0.565,0.392-1.021,0.857-1.331,1.396
			c-0.313,0.535-0.46,1.134-0.457,1.689c0.01,1.068,0.463,1.909,0.947,2.545c0.505,0.642,1.038,1.098,1.63,1.41
			c0.177,0.087,0.36,0.169,0.627,0.224c0.818,0.162,1.569,0.24,2.267,0.24c0.989,0,1.874-0.161,2.645-0.487
			c0.77-0.325,1.411-0.819,1.883-1.403c0.948-1.181,1.221-2.595,1.224-3.869c-0.001-0.911-0.143-1.779-0.353-2.544
			c-0.218-0.768-0.483-1.416-0.854-1.967c-0.665-0.975-1.445-1.727-2.326-2.226c-0.877-0.5-1.842-0.729-2.775-0.727
			c-1.808,0.01-3.466,0.768-4.985,1.763c-1.519,1.005-2.915,2.289-4.127,3.558c-0.193,0.202-0.372,0.402-0.555,0.602
			c-0.093-1.246-0.347-2.54-0.844-3.771c-0.64-1.582-1.719-3.089-3.385-4.028c-1.104-0.627-2.441-0.976-3.946-0.974
			c-1.351,0-2.836,0.271-4.487,0.841c-0.668,0.242-1.162,0.638-1.656,1.12c-0.487,0.486-0.945,1.074-1.357,1.743
			c-0.814,1.338-1.465,3.001-1.474,4.799c-0.004,1.164,0.304,2.405,1.072,3.483c0.766,1.081,1.956,1.946,3.52,2.514
			c0.706,0.257,1.407,0.386,2.079,0.384c1.489,0.006,2.789-0.641,3.646-1.576c0.862-0.938,1.343-2.145,1.347-3.394
			c0.001-0.852-0.236-1.737-0.766-2.501c-0.525-0.764-1.336-1.377-2.327-1.725c-0.763-0.27-1.6,0.129-1.87,0.89
			c-0.27,0.762,0.128,1.6,0.891,1.87c0.483,0.176,0.733,0.399,0.897,0.632c0.162,0.234,0.245,0.51,0.246,0.833
			c0.005,0.471-0.203,1.017-0.566,1.403c-0.368,0.387-0.833,0.633-1.498,0.639c-0.305,0-0.659-0.056-1.075-0.208
			c-1.137-0.417-1.763-0.938-2.136-1.46c-0.37-0.524-0.527-1.103-0.531-1.786c-0.002-0.732,0.207-1.566,0.552-2.336
			c0.34-0.771,0.813-1.477,1.247-1.954c0.284-0.316,0.562-0.528,0.678-0.584l0.039-0.021c1.406-0.486,2.576-0.681,3.53-0.679
			c1.068,0.002,1.861,0.233,2.507,0.595c0.642,0.363,1.15,0.876,1.567,1.522c0.836,1.284,1.223,3.142,1.216,4.809
			c0.001,0.812-0.087,1.576-0.224,2.181c-0.13,0.602-0.34,1.051-0.426,1.155c-0.781,1.074-1.605,1.895-2.452,2.557
			c-0.24-0.269-0.64-0.337-0.947-0.13c-0.31,0.208-0.396,0.608-0.234,0.931c-0.225,0.131-0.448,0.271-0.675,0.382
			c-1.515,0.729-3.109,1.026-4.735,1.028c-3.106,0.007-6.309-1.128-8.757-2.336c-1.64-0.806-2.926-1.627-3.65-2.122
			c1.399-1.76,2.433-3.729,3.176-5.682c2.101-5.544,2.101-10.956,2.107-11.231l-0.001-0.047c-0.001-0.021-0.013-0.04-0.015-0.061
			c13.187-10.051,23.066,1.184,23.066,1.184c25.624,1.098,12.813,18.303,12.813,18.303c-5.184,10.688-12.939,8.195-14.658,7.479
			C268.418,41.916,269.008,41.777,269.55,41.466z"/>
		<path fill="none" stroke="#FFFFFF" stroke-miterlimit="10" d="M214.046,25.653c7.436-22.929,24.57-13.863,29.659-10.537
			c0,0.302-0.044,3.085-0.817,6.467c-0.803,3.554-2.43,7.677-5.413,10.273c-1.994,1.735-4.557,2.881-8.189,2.892l-0.379-0.004
			c-0.164,0.003-0.63-0.093-1.177-0.33c-0.551-0.233-1.199-0.592-1.851-1.047c-1.31-0.907-2.625-2.209-3.412-3.619
			c-0.528-0.941-0.825-1.91-0.825-2.877c0.004-0.887,0.236-1.794,0.87-2.798c0.635-1.001,1.694-2.089,3.35-3.193
			c0.011-0.013,0.213-0.112,0.518-0.172c0.307-0.064,0.716-0.105,1.171-0.105c0.959-0.003,2.122,0.187,3.121,0.59
			c1.008,0.403,1.821,1.001,2.282,1.746c0.309,0.5,0.498,1.078,0.501,1.863c0,0.514-0.087,1.116-0.305,1.822
			c-0.265,0.842-0.656,1.33-1.074,1.642c-0.42,0.309-0.902,0.45-1.399,0.452c-0.591,0.003-1.181-0.219-1.571-0.558
			c-0.391-0.347-0.604-0.742-0.611-1.315c0-0.219,0.034-0.47,0.128-0.762c0.246-0.771-0.179-1.595-0.949-1.841
			c-0.77-0.247-1.595,0.179-1.84,0.948c-0.179,0.558-0.268,1.114-0.268,1.654c-0.008,1.452,0.67,2.726,1.636,3.541
			c0.967,0.824,2.2,1.258,3.476,1.261c1.068,0.001,2.183-0.319,3.137-1.022c0.955-0.699,1.718-1.774,2.134-3.133
			c0.293-0.945,0.437-1.842,0.437-2.688c0.004-1.294-0.349-2.465-0.946-3.416c-0.597-0.954-1.414-1.681-2.299-2.223
			c-1.78-1.08-3.833-1.481-5.588-1.489c-0.629,0-1.222,0.054-1.77,0.168c-0.549,0.119-1.055,0.282-1.542,0.601
			c-1.911,1.274-3.287,2.628-4.197,4.058c-0.91,1.426-1.33,2.933-1.327,4.37c0.006,2.368,1.072,4.447,2.439,6.105
			c1.377,1.663,3.079,2.947,4.654,3.766c1.063,0.538,2.032,0.895,3.036,0.931c0.148,0.002,0.296,0.004,0.443,0.004
			c4.228,0.01,7.573-1.411,10.033-3.547c0.667,0.473,2.143,1.464,4.135,2.466c2.716,1.36,6.381,2.758,10.306,2.766
			c1.984,0.001,4.041-0.371,6.006-1.318c0.402-0.193,0.797-0.428,1.189-0.67c0.972,1.139,2.268,2.474,3.68,3.413
			c0.865,0.569,1.795,0.988,2.771,1.091c-13.511,19.212-25.904,3.544-25.904,3.544C210.019,53.839,214.046,25.653,214.046,25.653z"
			/>
	</g>
</g>
<g opacity="0.33">
	<path fill="none" stroke="#FFFFFF" stroke-miterlimit="10" d="M348.182,127.533c0,0-0.495,2.967,1.236,6.181
		c0,0,1.977,6.181-2.473,5.439c0,0-4.203,0.061-1.483-5.779C345.462,133.374,346.203,130.995,348.182,127.533z"/>
	<g>
		<path fill="none" stroke="#FFFFFF" stroke-miterlimit="10" d="M348.65,120.796c0.371-0.209,0.703-0.529,0.992-0.951
			c0.15-0.225,0.268-0.505,0.361-0.837c0.091-0.331,0.152-0.708,0.152-1.1c0-0.551-0.119-1.148-0.514-1.638
			c-0.394-0.493-1.059-0.797-1.91-0.791c-0.301,0.001-0.629,0.035-0.988,0.106c-0.188,0.042-0.305,0.117-0.439,0.209
			c-0.132,0.094-0.262,0.211-0.387,0.354c-0.242,0.282-0.477,0.667-0.483,1.156c-0.009,0.455,0.254,0.933,0.733,1.253
			c0.225,0.155,0.533,0.1,0.688-0.125c0.156-0.225,0.101-0.533-0.124-0.689c-0.284-0.209-0.301-0.323-0.309-0.44
			c-0.004-0.122,0.076-0.312,0.213-0.475c0.118-0.152,0.297-0.271,0.32-0.278c0.297-0.058,0.556-0.084,0.775-0.084
			c0.646,0.007,0.945,0.191,1.143,0.425c0.196,0.237,0.294,0.606,0.293,1.015c0,0.287-0.047,0.584-0.117,0.836
			c-0.068,0.25-0.166,0.459-0.225,0.542c-0.223,0.323-0.445,0.525-0.664,0.65c-0.22,0.124-0.438,0.176-0.68,0.177
			c-0.406,0.002-0.891-0.166-1.393-0.467c-0.502-0.299-1.014-0.722-1.483-1.176c-0.345-0.334-0.667-0.684-0.951-1.013
			c0.726-0.567,1.415-1.257,2.039-2.119c0.004-0.006,0.006-0.013,0.01-0.02c0.003-0.002,0.007-0.005,0.009-0.009l0.023-0.034
			l0.079-0.112c0.069-0.1,0.173-0.246,0.307-0.426c0.268-0.362,0.654-0.866,1.124-1.424c0.938-1.116,2.221-2.448,3.486-3.28
			c0.842-0.56,1.656-0.87,2.277-0.863c0.326,0.002,0.606,0.069,0.898,0.232c0.289,0.166,0.598,0.44,0.914,0.9
			c0.065,0.09,0.207,0.386,0.303,0.742c0.1,0.357,0.168,0.785,0.167,1.189c0.001,0.429-0.077,0.825-0.22,1.109
			c-0.149,0.287-0.326,0.477-0.672,0.63c-0.233,0.1-0.56,0.173-1.015,0.173c-0.304,0-0.668-0.037-1.086-0.115l-0.185-0.145
			c-0.149-0.133-0.305-0.33-0.379-0.494c-0.051-0.11-0.068-0.198-0.067-0.254l0.044-0.152c0.038-0.066,0.121-0.172,0.311-0.304
			c0.449-0.312,0.561-0.927,0.25-1.376c-0.31-0.449-0.927-0.561-1.376-0.25c-0.382,0.264-0.689,0.578-0.898,0.942
			c-0.211,0.361-0.311,0.766-0.309,1.141c0.006,0.721,0.313,1.289,0.64,1.719c0.341,0.434,0.7,0.742,1.1,0.952
			c0.119,0.059,0.243,0.114,0.424,0.151c0.553,0.109,1.06,0.162,1.53,0.162c0.669,0,1.267-0.109,1.786-0.329
			c0.52-0.219,0.953-0.553,1.272-0.947c0.641-0.798,0.824-1.753,0.826-2.613c0-0.615-0.096-1.201-0.238-1.718
			c-0.146-0.519-0.326-0.956-0.576-1.329c-0.449-0.659-0.977-1.166-1.571-1.504c-0.593-0.338-1.244-0.492-1.874-0.491
			c-1.221,0.007-2.342,0.519-3.367,1.191c-1.025,0.679-1.969,1.546-2.787,2.403c-0.131,0.136-0.252,0.271-0.375,0.407
			c-0.063-0.841-0.234-1.715-0.57-2.547c-0.432-1.068-1.16-2.086-2.285-2.721c-0.746-0.423-1.649-0.659-2.666-0.657
			c-0.912,0-1.915,0.183-3.03,0.568c-0.451,0.163-0.785,0.431-1.119,0.756c-0.329,0.328-0.639,0.726-0.917,1.178
			c-0.55,0.904-0.989,2.026-0.995,3.241c-0.003,0.786,0.205,1.625,0.724,2.353c0.517,0.73,1.321,1.314,2.377,1.698
			c0.477,0.174,0.95,0.261,1.404,0.26c1.006,0.004,1.884-0.433,2.463-1.064c0.582-0.633,0.907-1.448,0.909-2.292
			c0.001-0.575-0.159-1.173-0.518-1.689c-0.353-0.516-0.901-0.93-1.571-1.165c-0.515-0.182-1.08,0.087-1.263,0.601
			c-0.182,0.515,0.086,1.081,0.602,1.263c0.326,0.119,0.495,0.269,0.605,0.427c0.109,0.158,0.166,0.345,0.166,0.563
			c0.004,0.318-0.137,0.687-0.382,0.948c-0.249,0.261-0.563,0.428-1.012,0.432c-0.206,0-0.445-0.038-0.726-0.14
			c-0.768-0.282-1.191-0.634-1.443-0.986c-0.249-0.354-0.356-0.745-0.358-1.206c-0.002-0.495,0.14-1.058,0.372-1.578
			c0.229-0.521,0.549-0.998,0.842-1.32c0.192-0.213,0.379-0.356,0.457-0.395l0.026-0.014c0.95-0.328,1.74-0.46,2.384-0.459
			c0.722,0.001,1.258,0.158,1.693,0.402c0.434,0.245,0.777,0.591,1.059,1.028c0.565,0.867,0.826,2.122,0.821,3.248
			c0.001,0.548-0.06,1.064-0.151,1.473c-0.088,0.407-0.229,0.71-0.287,0.78c-0.527,0.726-1.084,1.28-1.656,1.727
			c-0.162-0.182-0.432-0.228-0.641-0.088c-0.209,0.14-0.268,0.411-0.158,0.629c-0.151,0.089-0.303,0.184-0.455,0.258
			c-1.023,0.493-2.1,0.693-3.198,0.694c-2.098,0.005-4.261-0.762-5.915-1.578c-1.107-0.544-1.976-1.099-2.465-1.433
			c0.945-1.188,1.643-2.519,2.145-3.837c1.418-3.745,1.418-7.4,1.423-7.585l-0.001-0.032c0-0.015-0.008-0.027-0.01-0.042
			c8.906-6.788,15.579,0.8,15.579,0.8c17.307,0.742,8.653,12.361,8.653,12.361c-3.501,7.219-8.739,5.535-9.899,5.051
			C347.886,121.1,348.284,121.006,348.65,120.796z"/>
		<path fill="none" stroke="#FFFFFF" stroke-miterlimit="10" d="M311.164,110.116c5.022-15.486,16.594-9.363,20.031-7.117
			c0,0.204-0.029,2.083-0.552,4.368c-0.543,2.4-1.641,5.185-3.656,6.938c-1.347,1.172-3.077,1.946-5.531,1.953l-0.256-0.003
			c-0.111,0.002-0.426-0.063-0.795-0.223c-0.372-0.158-0.81-0.4-1.25-0.707c-0.884-0.612-1.773-1.492-2.304-2.444
			c-0.357-0.635-0.558-1.29-0.558-1.943c0.003-0.599,0.16-1.212,0.588-1.89c0.429-0.676,1.144-1.411,2.262-2.156
			c0.007-0.009,0.143-0.076,0.35-0.116c0.207-0.043,0.483-0.071,0.79-0.071c0.648-0.002,1.434,0.126,2.108,0.399
			c0.681,0.272,1.23,0.676,1.541,1.179c0.209,0.338,0.336,0.728,0.338,1.258c0,0.347-0.059,0.754-0.206,1.23
			c-0.179,0.569-0.443,0.898-0.726,1.109c-0.284,0.208-0.609,0.304-0.945,0.305c-0.399,0.002-0.797-0.148-1.061-0.377
			c-0.264-0.234-0.408-0.501-0.413-0.888c0-0.148,0.023-0.318,0.086-0.515c0.167-0.521-0.121-1.077-0.641-1.243
			c-0.52-0.167-1.077,0.121-1.243,0.641c-0.121,0.377-0.181,0.752-0.181,1.117c-0.005,0.98,0.453,1.841,1.105,2.391
			c0.653,0.557,1.486,0.85,2.347,0.852c0.722,0.001,1.474-0.215,2.119-0.691c0.645-0.472,1.16-1.198,1.441-2.116
			c0.198-0.638,0.295-1.244,0.295-1.816c0.003-0.874-0.235-1.664-0.639-2.307c-0.403-0.644-0.955-1.135-1.552-1.502
			c-1.203-0.729-2.589-1-3.774-1.005c-0.424,0-0.825,0.037-1.196,0.114c-0.371,0.081-0.712,0.19-1.041,0.406
			c-1.291,0.861-2.22,1.775-2.835,2.741c-0.615,0.963-0.898,1.981-0.896,2.952c0.004,1.599,0.724,3.003,1.647,4.122
			c0.93,1.123,2.08,1.99,3.144,2.544c0.718,0.363,1.372,0.604,2.05,0.629c0.1,0.002,0.2,0.002,0.3,0.002
			c2.855,0.007,5.115-0.953,6.776-2.396c0.45,0.32,1.447,0.989,2.793,1.666c1.834,0.918,4.31,1.863,6.96,1.868
			c1.34,0.001,2.729-0.25,4.056-0.89c0.272-0.13,0.539-0.289,0.803-0.453c0.656,0.77,1.531,1.671,2.486,2.305
			c0.584,0.384,1.211,0.667,1.871,0.737c-9.126,12.976-17.496,2.394-17.496,2.394C308.443,129.153,311.164,110.116,311.164,110.116z
			"/>
	</g>
</g>
<g opacity="0.33">
	<path fill="none" stroke="#FFFFFF" stroke-miterlimit="10" d="M285.635,177.031c0,0,0.393,2.356-0.982,4.91
		c0,0-1.571,4.91,1.964,4.32c0,0,3.339,0.049,1.178-4.591C287.795,181.67,287.206,179.78,285.635,177.031z"/>
	<g>
		<path fill="none" stroke="#FFFFFF" stroke-miterlimit="10" d="M285.262,171.679c-0.294-0.166-0.559-0.42-0.788-0.756
			c-0.12-0.179-0.213-0.401-0.288-0.665c-0.072-0.263-0.121-0.563-0.121-0.874c0-0.438,0.095-0.912,0.409-1.301
			c0.312-0.392,0.841-0.633,1.517-0.628c0.239,0.001,0.5,0.027,0.785,0.084c0.15,0.034,0.242,0.093,0.35,0.167
			c0.104,0.075,0.208,0.168,0.307,0.281c0.193,0.224,0.379,0.53,0.384,0.919c0.007,0.361-0.202,0.741-0.582,0.996
			c-0.178,0.123-0.423,0.079-0.546-0.099c-0.124-0.179-0.08-0.424,0.098-0.547c0.226-0.165,0.239-0.257,0.245-0.35
			c0.004-0.097-0.06-0.248-0.169-0.377c-0.094-0.121-0.236-0.215-0.254-0.221c-0.236-0.046-0.442-0.066-0.617-0.066
			c-0.513,0.005-0.75,0.151-0.907,0.337c-0.156,0.189-0.234,0.482-0.233,0.806c0,0.228,0.038,0.464,0.093,0.665
			c0.054,0.199,0.131,0.365,0.178,0.431c0.177,0.257,0.354,0.417,0.528,0.517c0.174,0.098,0.347,0.14,0.539,0.14
			c0.323,0.002,0.708-0.132,1.107-0.371c0.398-0.238,0.805-0.573,1.178-0.934c0.274-0.266,0.53-0.544,0.756-0.805
			c-0.577-0.45-1.124-0.999-1.62-1.683c-0.003-0.004-0.004-0.01-0.008-0.015c-0.001-0.002-0.005-0.004-0.007-0.007l-0.018-0.026
			l-0.063-0.089c-0.055-0.079-0.137-0.195-0.243-0.339c-0.213-0.287-0.52-0.688-0.894-1.131c-0.745-0.887-1.764-1.945-2.769-2.605
			c-0.669-0.445-1.316-0.691-1.809-0.686c-0.26,0.001-0.482,0.055-0.714,0.185c-0.23,0.131-0.475,0.35-0.726,0.715
			c-0.052,0.071-0.165,0.307-0.241,0.589c-0.079,0.284-0.133,0.624-0.133,0.945c-0.001,0.34,0.061,0.655,0.175,0.881
			c0.119,0.229,0.259,0.379,0.534,0.501c0.185,0.079,0.444,0.137,0.806,0.137c0.241,0,0.531-0.029,0.863-0.091l0.147-0.115
			c0.118-0.106,0.241-0.262,0.3-0.392c0.041-0.087,0.054-0.157,0.054-0.202l-0.034-0.121c-0.031-0.053-0.097-0.137-0.248-0.242
			c-0.357-0.248-0.446-0.737-0.199-1.093c0.247-0.357,0.737-0.446,1.093-0.199c0.304,0.21,0.548,0.459,0.714,0.748
			c0.168,0.287,0.247,0.608,0.245,0.906c-0.005,0.573-0.248,1.024-0.508,1.366c-0.271,0.344-0.557,0.589-0.874,0.756
			c-0.095,0.046-0.193,0.09-0.336,0.12c-0.439,0.086-0.842,0.129-1.216,0.129c-0.531,0-1.005-0.087-1.418-0.262
			c-0.413-0.174-0.757-0.439-1.011-0.753c-0.508-0.634-0.655-1.393-0.656-2.076c0-0.489,0.077-0.954,0.19-1.365
			c0.117-0.412,0.259-0.759,0.457-1.055c0.357-0.523,0.776-0.927,1.248-1.195c0.471-0.269,0.988-0.391,1.489-0.39
			c0.97,0.005,1.859,0.412,2.675,0.946c0.815,0.539,1.564,1.229,2.214,1.909c0.104,0.108,0.2,0.216,0.297,0.323
			c0.05-0.668,0.187-1.363,0.453-2.023c0.343-0.849,0.922-1.657,1.816-2.162c0.592-0.336,1.31-0.523,2.117-0.522
			c0.725,0,1.521,0.145,2.407,0.451c0.358,0.129,0.624,0.342,0.889,0.601c0.261,0.26,0.507,0.576,0.728,0.936
			c0.437,0.718,0.786,1.609,0.791,2.574c0.002,0.624-0.163,1.29-0.575,1.869c-0.411,0.58-1.049,1.045-1.888,1.349
			c-0.379,0.138-0.755,0.207-1.116,0.206c-0.799,0.003-1.497-0.344-1.956-0.846c-0.462-0.503-0.72-1.15-0.722-1.821
			c-0.001-0.457,0.126-0.932,0.411-1.342c0.282-0.41,0.717-0.739,1.249-0.926c0.409-0.145,0.858,0.07,1.003,0.478
			c0.145,0.409-0.069,0.858-0.478,1.003c-0.259,0.094-0.394,0.214-0.482,0.339c-0.087,0.126-0.131,0.273-0.132,0.447
			c-0.003,0.252,0.109,0.545,0.304,0.752c0.197,0.208,0.447,0.34,0.804,0.343c0.164,0,0.354-0.03,0.577-0.111
			c0.61-0.225,0.946-0.503,1.146-0.784c0.198-0.281,0.283-0.591,0.285-0.958c0.001-0.393-0.111-0.84-0.296-1.253
			c-0.183-0.414-0.436-0.792-0.669-1.048c-0.152-0.169-0.301-0.283-0.363-0.314l-0.021-0.011c-0.754-0.261-1.382-0.365-1.894-0.364
			c-0.573,0.001-0.999,0.125-1.345,0.319c-0.344,0.195-0.617,0.47-0.841,0.816c-0.448,0.689-0.656,1.686-0.652,2.58
			c0,0.436,0.047,0.845,0.12,1.169c0.069,0.323,0.183,0.564,0.229,0.62c0.419,0.576,0.861,1.017,1.316,1.372
			c0.129-0.144,0.343-0.181,0.508-0.07c0.166,0.111,0.213,0.326,0.126,0.5c0.121,0.07,0.24,0.146,0.362,0.205
			c0.813,0.392,1.668,0.551,2.541,0.552c1.666,0.004,3.385-0.605,4.698-1.253c0.88-0.433,1.57-0.873,1.958-1.139
			c-0.751-0.944-1.305-2-1.704-3.048c-1.127-2.975-1.127-5.878-1.13-6.025l0.001-0.025c0-0.012,0.007-0.021,0.008-0.033
			c-7.075-5.392-12.375,0.636-12.375,0.636c-13.748,0.589-6.874,9.819-6.874,9.819c2.781,5.735,6.942,4.396,7.864,4.013
			C285.87,171.92,285.553,171.845,285.262,171.679z"/>
		<path fill="none" stroke="#FFFFFF" stroke-miterlimit="10" d="M315.04,163.195c-3.989-12.301-13.182-7.438-15.912-5.653
			c0,0.162,0.023,1.655,0.439,3.47c0.431,1.907,1.304,4.119,2.904,5.511c1.07,0.931,2.444,1.546,4.393,1.552l0.203-0.002
			c0.088,0.001,0.338-0.05,0.631-0.177c0.296-0.126,0.644-0.318,0.993-0.562c0.703-0.486,1.408-1.185,1.831-1.942
			c0.283-0.504,0.443-1.025,0.443-1.543c-0.002-0.476-0.127-0.962-0.467-1.501c-0.34-0.537-0.909-1.121-1.797-1.713
			c-0.006-0.007-0.114-0.06-0.278-0.092c-0.165-0.034-0.384-0.057-0.628-0.057c-0.515-0.002-1.139,0.101-1.674,0.317
			c-0.54,0.216-0.978,0.537-1.225,0.937c-0.166,0.268-0.267,0.578-0.269,0.999c0,0.276,0.046,0.599,0.163,0.977
			c0.142,0.452,0.352,0.714,0.576,0.881c0.226,0.165,0.484,0.242,0.751,0.242c0.317,0.002,0.634-0.117,0.843-0.299
			c0.21-0.186,0.325-0.398,0.329-0.706c0-0.118-0.019-0.252-0.069-0.409c-0.132-0.414,0.096-0.855,0.509-0.988
			c0.413-0.132,0.855,0.096,0.987,0.509c0.096,0.299,0.143,0.597,0.143,0.887c0.004,0.779-0.36,1.462-0.878,1.899
			c-0.519,0.442-1.18,0.675-1.865,0.677c-0.573,0.001-1.171-0.171-1.683-0.549c-0.513-0.375-0.922-0.952-1.145-1.681
			c-0.157-0.507-0.234-0.988-0.234-1.442c-0.002-0.694,0.187-1.322,0.507-1.833c0.32-0.512,0.759-0.902,1.233-1.193
			c0.955-0.58,2.056-0.795,2.998-0.799c0.337,0,0.655,0.029,0.95,0.09c0.294,0.064,0.565,0.151,0.827,0.323
			c1.025,0.684,1.764,1.41,2.252,2.177c0.488,0.765,0.714,1.574,0.712,2.345c-0.003,1.27-0.575,2.386-1.309,3.275
			c-0.739,0.892-1.652,1.581-2.497,2.021c-0.57,0.288-1.09,0.48-1.628,0.499c-0.08,0.001-0.159,0.002-0.238,0.002
			c-2.268,0.005-4.063-0.757-5.383-1.903c-0.358,0.254-1.149,0.786-2.218,1.323c-1.457,0.73-3.423,1.48-5.529,1.484
			c-1.065,0.001-2.168-0.199-3.222-0.707c-0.216-0.104-0.427-0.23-0.638-0.36c-0.521,0.611-1.216,1.327-1.974,1.831
			c-0.464,0.305-0.963,0.53-1.486,0.585c7.249,10.308,13.898,1.902,13.898,1.902C317.202,178.317,315.04,163.195,315.04,163.195z"/>
	</g>
</g>
<g opacity="0.33">
	<path fill="none" stroke="#FFFFFF" stroke-miterlimit="10" d="M59.882,208.312c0,0,0.393,2.357-0.982,4.91
		c0,0-1.571,4.91,1.964,4.32c0,0,3.339,0.049,1.178-4.591C62.042,212.952,61.454,211.061,59.882,208.312z"/>
	<g>
		<path fill="none" stroke="#FFFFFF" stroke-miterlimit="10" d="M59.509,202.96c-0.294-0.167-0.559-0.42-0.788-0.756
			c-0.12-0.179-0.213-0.401-0.288-0.665c-0.072-0.263-0.121-0.563-0.121-0.874c0-0.438,0.095-0.912,0.409-1.301
			c0.312-0.392,0.841-0.633,1.517-0.628c0.239,0.001,0.5,0.027,0.785,0.084c0.15,0.034,0.242,0.093,0.35,0.167
			c0.104,0.075,0.208,0.168,0.307,0.281c0.193,0.224,0.379,0.53,0.384,0.918c0.007,0.361-0.202,0.741-0.582,0.996
			c-0.178,0.123-0.423,0.079-0.546-0.099c-0.124-0.179-0.08-0.424,0.098-0.547c0.226-0.165,0.239-0.257,0.245-0.35
			c0.004-0.097-0.06-0.247-0.169-0.377c-0.094-0.121-0.236-0.215-0.254-0.221c-0.236-0.046-0.442-0.066-0.617-0.066
			c-0.513,0.005-0.75,0.151-0.907,0.337c-0.156,0.188-0.234,0.481-0.233,0.806c0,0.228,0.038,0.464,0.093,0.665
			c0.054,0.199,0.131,0.365,0.178,0.431c0.177,0.257,0.355,0.418,0.528,0.517c0.174,0.098,0.347,0.14,0.54,0.14
			c0.323,0.002,0.708-0.132,1.107-0.371c0.398-0.238,0.805-0.573,1.178-0.934c0.274-0.266,0.53-0.544,0.756-0.805
			c-0.577-0.45-1.124-0.999-1.62-1.683c-0.003-0.004-0.004-0.01-0.008-0.015c-0.002-0.002-0.005-0.004-0.007-0.007l-0.019-0.026
			l-0.063-0.089c-0.055-0.079-0.137-0.195-0.243-0.339c-0.213-0.287-0.52-0.688-0.894-1.131c-0.745-0.887-1.764-1.945-2.769-2.605
			c-0.668-0.445-1.316-0.691-1.809-0.686c-0.26,0.001-0.482,0.055-0.714,0.185c-0.231,0.131-0.476,0.35-0.726,0.715
			c-0.052,0.071-0.165,0.307-0.241,0.589c-0.079,0.284-0.133,0.624-0.133,0.945c-0.001,0.34,0.061,0.655,0.175,0.881
			c0.119,0.229,0.259,0.379,0.534,0.5c0.185,0.079,0.444,0.137,0.806,0.137c0.241,0,0.531-0.029,0.863-0.091l0.147-0.115
			c0.118-0.106,0.241-0.262,0.3-0.392c0.04-0.087,0.054-0.157,0.054-0.202l-0.034-0.121c-0.031-0.053-0.097-0.137-0.248-0.242
			c-0.357-0.247-0.446-0.737-0.199-1.093c0.247-0.357,0.737-0.446,1.093-0.199c0.304,0.21,0.548,0.459,0.714,0.749
			c0.168,0.287,0.247,0.608,0.245,0.906c-0.005,0.573-0.249,1.024-0.508,1.366c-0.271,0.344-0.557,0.589-0.874,0.756
			c-0.095,0.046-0.193,0.09-0.336,0.12c-0.439,0.087-0.842,0.129-1.216,0.129c-0.531,0-1.005-0.087-1.418-0.262
			c-0.413-0.174-0.757-0.439-1.011-0.752c-0.508-0.634-0.655-1.393-0.656-2.076c0-0.489,0.077-0.955,0.19-1.365
			c0.117-0.412,0.259-0.759,0.458-1.055c0.357-0.523,0.776-0.927,1.248-1.195c0.471-0.269,0.988-0.391,1.489-0.39
			c0.97,0.005,1.859,0.412,2.675,0.946c0.814,0.539,1.564,1.229,2.214,1.909c0.104,0.108,0.2,0.216,0.297,0.323
			c0.05-0.668,0.187-1.363,0.453-2.023c0.343-0.849,0.922-1.657,1.817-2.162c0.592-0.336,1.309-0.523,2.117-0.522
			c0.725,0,1.521,0.145,2.407,0.451c0.358,0.129,0.623,0.342,0.889,0.601c0.261,0.26,0.507,0.576,0.729,0.936
			c0.437,0.718,0.786,1.609,0.791,2.574c0.002,0.625-0.163,1.291-0.575,1.869c-0.411,0.58-1.049,1.044-1.888,1.349
			c-0.379,0.138-0.755,0.207-1.116,0.207c-0.799,0.003-1.497-0.344-1.957-0.846c-0.462-0.503-0.72-1.15-0.722-1.821
			c-0.001-0.457,0.126-0.932,0.411-1.342c0.282-0.41,0.717-0.739,1.248-0.926c0.409-0.145,0.858,0.07,1.004,0.477
			c0.145,0.409-0.069,0.858-0.478,1.003c-0.259,0.094-0.394,0.214-0.481,0.339c-0.087,0.126-0.131,0.273-0.132,0.447
			c-0.003,0.253,0.109,0.545,0.304,0.753c0.197,0.207,0.447,0.34,0.804,0.343c0.164,0,0.353-0.03,0.577-0.111
			c0.61-0.225,0.946-0.503,1.146-0.784c0.198-0.281,0.283-0.591,0.285-0.958c0.001-0.393-0.111-0.84-0.296-1.253
			c-0.183-0.414-0.437-0.793-0.669-1.048c-0.152-0.169-0.301-0.283-0.363-0.313l-0.021-0.011c-0.754-0.261-1.382-0.365-1.894-0.364
			c-0.573,0.001-0.998,0.126-1.345,0.319c-0.344,0.195-0.617,0.47-0.841,0.816c-0.448,0.689-0.656,1.686-0.652,2.58
			c0,0.436,0.047,0.845,0.12,1.169c0.069,0.323,0.183,0.564,0.228,0.62c0.419,0.576,0.861,1.017,1.316,1.372
			c0.128-0.144,0.343-0.181,0.508-0.07c0.166,0.111,0.213,0.326,0.126,0.499c0.121,0.07,0.24,0.146,0.362,0.205
			c0.813,0.392,1.668,0.551,2.541,0.552c1.666,0.004,3.385-0.605,4.698-1.253c0.88-0.433,1.57-0.873,1.959-1.139
			c-0.751-0.944-1.305-2.001-1.704-3.048c-1.127-2.975-1.127-5.879-1.13-6.025l0.001-0.025c0-0.012,0.007-0.021,0.008-0.033
			c-7.075-5.392-12.375,0.636-12.375,0.636c-13.747,0.589-6.874,9.819-6.874,9.819c2.781,5.735,6.942,4.396,7.864,4.013
			C60.117,203.201,59.8,203.126,59.509,202.96z"/>
		<path fill="none" stroke="#FFFFFF" stroke-miterlimit="10" d="M89.288,194.476c-3.989-12.301-13.182-7.438-15.912-5.653
			c0,0.162,0.023,1.655,0.439,3.47c0.431,1.907,1.304,4.119,2.904,5.511c1.07,0.931,2.444,1.546,4.394,1.552l0.203-0.003
			c0.088,0.002,0.338-0.05,0.631-0.177c0.296-0.126,0.644-0.318,0.993-0.561c0.703-0.486,1.408-1.185,1.83-1.942
			c0.283-0.504,0.443-1.025,0.443-1.543c-0.003-0.476-0.127-0.962-0.467-1.502c-0.34-0.537-0.909-1.121-1.797-1.713
			c-0.006-0.007-0.114-0.06-0.278-0.092c-0.165-0.034-0.384-0.057-0.628-0.057c-0.515-0.001-1.139,0.101-1.674,0.317
			c-0.541,0.216-0.978,0.537-1.225,0.937c-0.166,0.268-0.267,0.578-0.269,0.999c0,0.276,0.046,0.599,0.163,0.977
			c0.142,0.452,0.352,0.714,0.576,0.881c0.226,0.165,0.484,0.242,0.751,0.242c0.317,0.002,0.634-0.117,0.843-0.299
			c0.21-0.186,0.325-0.398,0.329-0.705c0-0.118-0.019-0.253-0.069-0.409c-0.132-0.414,0.096-0.855,0.509-0.988
			c0.413-0.132,0.856,0.096,0.987,0.509c0.096,0.299,0.144,0.597,0.144,0.887c0.004,0.779-0.36,1.462-0.878,1.899
			c-0.519,0.442-1.18,0.675-1.865,0.677c-0.573,0.001-1.171-0.171-1.683-0.549c-0.513-0.375-0.922-0.952-1.145-1.681
			c-0.157-0.507-0.234-0.988-0.234-1.442c-0.002-0.694,0.186-1.322,0.507-1.833c0.32-0.512,0.759-0.902,1.233-1.193
			c0.955-0.58,2.056-0.795,2.998-0.799c0.337,0,0.655,0.029,0.95,0.09c0.294,0.064,0.565,0.151,0.827,0.323
			c1.025,0.684,1.764,1.41,2.252,2.177c0.488,0.765,0.714,1.574,0.712,2.345c-0.003,1.27-0.575,2.386-1.309,3.275
			c-0.739,0.892-1.652,1.581-2.497,2.021c-0.57,0.288-1.09,0.48-1.628,0.499c-0.08,0.001-0.159,0.002-0.238,0.002
			c-2.268,0.005-4.063-0.757-5.383-1.903c-0.358,0.254-1.149,0.786-2.218,1.323c-1.457,0.73-3.423,1.48-5.529,1.484
			c-1.064,0.001-2.168-0.199-3.222-0.707c-0.216-0.104-0.427-0.23-0.638-0.36c-0.521,0.611-1.216,1.327-1.974,1.831
			c-0.464,0.305-0.963,0.53-1.486,0.585c7.249,10.308,13.898,1.902,13.898,1.902C91.449,209.599,89.288,194.476,89.288,194.476z"/>
	</g>
</g>
<path fill="none" stroke="#000000" stroke-width="2" stroke-linecap="round" stroke-linejoin="round" stroke-miterlimit="10" d="
	M296.5,405.375"/>
</svg>
